<?xml version="1.0" encoding="UTF-8"?>
<svg version="1.1" xmlns="http://www.w3.org/2000/svg" width="600" height="600">
<path d="M0 0 C1.08458496 -0.00926514 2.16916992 -0.01853027 3.28662109 -0.02807617 C10.68087096 0.00050551 17.6203766 0.88045577 24.875 2.25 C26.83648956 2.57615768 28.7987352 2.89780166 30.76171875 3.21484375 C32.69538358 3.53863833 34.62897761 3.86285598 36.5625 4.1875 C38.01366211 4.42243164 38.01366211 4.42243164 39.49414062 4.66210938 C45.53257536 5.68550378 51.12123675 7.17160389 56.875 9.25 C58.2189799 9.6946601 59.56402028 10.13612911 60.91015625 10.57421875 C85.64900559 18.85597193 107.52428658 32.57127244 126.66796875 50.23046875 C128.58982152 51.98904907 130.55147489 53.65819775 132.5625 55.3125 C136.42497439 58.61935163 139.65023993 62.32748482 142.875 66.25 C143.71160156 67.260625 144.54820312 68.27125 145.41015625 69.3125 C151.92991414 77.32511051 157.56948004 85.70714545 162.8671875 94.57080078 C163.77811266 96.08856804 164.71566759 97.59027487 165.65625 99.08984375 C166.875 101.25 166.875 101.25 166.875 103.25 C167.535 103.58 168.195 103.91 168.875 104.25 C168.875 105.24 168.875 106.23 168.875 107.25 C169.535 107.58 170.195 107.91 170.875 108.25 C171.59578866 110.30939618 172.30401878 112.37393018 172.953125 114.45703125 C173.98788218 117.59199475 175.20525687 120.62501339 176.4375 123.6875 C178.35723304 128.57879585 179.65555492 133.22740718 180.41796875 138.421875 C180.64419922 139.32679688 180.64419922 139.32679688 180.875 140.25 C181.535 140.58 182.195 140.91 182.875 141.25 C183.16373624 143.12253946 183.43713199 144.99885 183.62890625 146.88378906 C184.05556935 150.98618862 184.73609749 155.05120578 185.375 159.125 C185.50519531 159.97835937 185.63539063 160.83171875 185.76953125 161.7109375 C185.96095703 162.93296875 185.96095703 162.93296875 186.15625 164.1796875 C186.27033203 164.91429199 186.38441406 165.64889648 186.50195312 166.40576172 C186.80864233 168.33478923 186.80864233 168.33478923 187.875 170.25 C190.66563369 214.06060383 180.57889828 259.57933305 154.73828125 295.5546875 C152.74798947 298.16545075 152.74798947 298.16545075 151.875 301.25 C150.2290349 302.93711423 148.56262851 304.6045622 146.875 306.25 C146.545 306.91 146.215 307.57 145.875 308.25 C145.215 308.25 144.555 308.25 143.875 308.25 C143.65070313 308.79011719 143.42640625 309.33023437 143.1953125 309.88671875 C141.45742293 312.99743825 139.16499969 315.4729908 136.75 318.0625 C136.25282471 318.5980249 135.75564941 319.1335498 135.2434082 319.68530273 C131.3424364 323.84058995 127.30800209 327.66211096 122.875 331.25 C121.89402344 332.06855469 120.91304688 332.88710938 119.90234375 333.73046875 C90.03165875 358.25 90.03165875 358.25 78.875 358.25 C78.545 358.91 78.215 359.57 77.875 360.25 C43.01743232 377.63957398 -3.63437844 381.63615232 -41.125 372.25 C-42.7249224 371.88263934 -44.3251839 371.51675238 -45.92578125 371.15234375 C-74.5412329 364.38608535 -99.23874596 350.37641497 -122.125 332.25 C-122.93807617 331.61167236 -122.93807617 331.61167236 -123.76757812 330.96044922 C-130.68753869 325.51649709 -130.68753869 325.51649709 -133.125 323.25 C-133.125 322.59 -133.125 321.93 -133.125 321.25 C-133.785 321.25 -134.445 321.25 -135.125 321.25 C-136.52099396 319.72162731 -137.84087649 318.12349901 -139.125 316.5 C-140.3315625 314.9840625 -140.3315625 314.9840625 -141.5625 313.4375 C-141.98402344 312.90769531 -142.40554687 312.37789063 -142.83984375 311.83203125 C-144.06882028 310.3191574 -145.3460118 308.84583643 -146.625 307.375 C-153.18771906 299.82787308 -158.26797488 291.96251425 -163.125 283.25 C-163.69565186 282.24211426 -163.69565186 282.24211426 -164.27783203 281.21386719 C-172.98188155 265.76354009 -179.13632744 249.87195312 -183.25 232.625 C-183.43175781 231.88765625 -183.61351562 231.1503125 -183.80078125 230.390625 C-184.70453458 226.59893808 -185.35798342 223.17965368 -185.125 219.25 C-185.785 218.92 -186.445 218.59 -187.125 218.25 C-189.31539286 204.23975135 -188.30011902 189.3724276 -188.125 175.25 C-188.12306641 174.49831543 -188.12113281 173.74663086 -188.11914062 172.97216797 C-188.05720847 160.83656284 -184.71365819 149.31616513 -181.65991211 137.64746094 C-181.01611913 135.17140068 -181.01611913 135.17140068 -181.125 132.25 C-180.465 132.25 -179.805 132.25 -179.125 132.25 C-178.939375 131.115625 -178.75375 129.98125 -178.5625 128.8125 C-176.83838601 120.95403839 -173.29181055 113.61261277 -170.125 106.25 C-169.55072755 104.90887716 -168.97650496 103.56773297 -168.40234375 102.2265625 C-167.77005859 100.75316406 -167.77005859 100.75316406 -167.125 99.25 C-166.465 99.25 -165.805 99.25 -165.125 99.25 C-164.8775 98.404375 -164.63 97.55875 -164.375 96.6875 C-162.14676428 90.55985177 -158.77528949 85.617338 -154.83203125 80.49609375 C-152.18585846 77.01428745 -149.67841448 73.43284133 -147.15234375 69.86328125 C-144.98666812 67.0716878 -142.65968303 64.71246984 -140.125 62.25 C-138.88698546 60.99318363 -137.65151782 59.73385571 -136.41796875 58.47265625 C-135.04958442 57.08583364 -133.68109247 55.69911721 -132.3125 54.3125 C-131.63896484 53.62220703 -130.96542969 52.93191406 -130.27148438 52.22070312 C-126.31266782 48.22400316 -122.29318632 44.70728927 -117.68481445 41.47436523 C-115.97964701 40.31549211 -115.97964701 40.31549211 -115.125 38.25 C-110.625 35.25 -110.625 35.25 -108.125 35.25 C-108.125 34.59 -108.125 33.93 -108.125 33.25 C-107.6609375 32.99347656 -107.196875 32.73695313 -106.71875 32.47265625 C-106.0278125 32.08980469 -105.336875 31.70695312 -104.625 31.3125 C-103.79742187 30.85617188 -102.96984375 30.39984375 -102.1171875 29.9296875 C-99.93923285 28.70707588 -97.78314089 27.46453072 -95.6328125 26.1953125 C-74.27190461 13.69378 -51.51857018 6.18949636 -27.125 2.25 C-26.07441406 2.04503906 -25.02382813 1.84007813 -23.94140625 1.62890625 C-15.96183289 0.2127029 -8.09091918 0.04278797 0 0 Z " fill="#71CCB1" transform="translate(300.125,111.75)"/>
<path d="M0 0 C1.17254837 0.09492737 2.34509674 0.18985474 3.55317688 0.28765869 C4.44788193 0.36256531 5.34258698 0.43747192 6.2644043 0.51464844 C6.54536404 15.59622667 6.75664326 30.67760142 6.88615036 45.76124382 C6.94789684 52.76587543 7.03198907 59.76887647 7.16967773 66.77246094 C7.3025699 73.53532382 7.37187246 80.29649453 7.40293121 87.06058121 C7.42505493 89.63713318 7.46826115 92.21359551 7.53316498 94.7894249 C8.04734332 116.04664453 8.04734332 116.04664453 3.67730713 121.259552 C0.84821612 123.91305745 -2.2981805 125.72389093 -5.7355957 127.51464844 C-7.30819977 128.62079713 -8.86929368 129.74391859 -10.4074707 130.89746094 C-11.76254422 131.81788823 -13.12178835 132.73221241 -14.4855957 133.63964844 C-15.19458008 134.11917969 -15.90356445 134.59871094 -16.6340332 135.09277344 C-18.33067843 136.23915535 -20.03252825 137.3778293 -21.7355957 138.51464844 C-20.4266385 141.63662321 -20.4266385 141.63662321 -17.7355957 143.51464844 C-10.46496614 144.29685021 -4.67227113 143.16710543 2.04956055 140.38964844 C4.2644043 139.51464844 4.2644043 139.51464844 6.2644043 139.51464844 C6.0300293 141.87011719 6.0300293 141.87011719 5.2644043 144.51464844 C-1.22176505 149.35155677 -10.02771921 149.37678109 -17.7355957 148.51464844 C-22.00029375 146.99670507 -23.23495358 146.26561162 -25.7355957 142.51464844 C-26.5480957 139.32714844 -26.5480957 139.32714844 -25.7355957 135.51464844 C-22.39812192 132.36608826 -18.5750382 130.00650336 -14.7355957 127.51464844 C-12.70580662 126.06880621 -10.68450289 124.61095555 -8.6730957 123.13964844 C-7.77461914 122.49253906 -6.87614258 121.84542969 -5.95043945 121.17871094 C-3.68519609 119.55797135 -3.68519609 119.55797135 -1.7355957 117.51464844 C-7.35903393 114.70292932 -15.02819573 115.87370679 -20.84887695 117.64355469 C-25.20398085 119.11533484 -29.47372263 120.79423269 -33.7355957 122.51464844 C-35.1612555 123.08136032 -36.58703484 123.64777157 -38.01293945 124.21386719 C-40.56969272 125.23183938 -43.11659847 126.26725606 -45.66137695 127.31542969 C-56.66032271 131.60599684 -69.70278115 130.19225329 -80.7355957 126.51464844 C-80.84516602 127.08570313 -80.95473633 127.65675781 -81.06762695 128.24511719 C-82.86809952 137.45241184 -84.71111535 146.62381752 -87.7355957 155.51464844 C-88.43782163 157.82271933 -89.12484784 160.13545903 -89.7980957 162.45214844 C-90.13969727 163.61617187 -90.48129883 164.78019531 -90.83325195 165.97949219 C-91.72829133 169.48603174 -92.29098791 172.925701 -92.7355957 176.51464844 C-91.49036133 176.69253906 -91.49036133 176.69253906 -90.2199707 176.87402344 C-86.38200451 177.57965848 -82.70418268 178.60300726 -78.9855957 179.76464844 C-78.28474854 179.98137207 -77.58390137 180.1980957 -76.86181641 180.42138672 C-71.83173239 182.03115248 -67.24300692 184.05599896 -62.65356445 186.69433594 C-60.58084086 187.83184812 -60.58084086 187.83184812 -57.7355957 186.51464844 C-57.0755957 185.66902344 -56.4155957 184.82339844 -55.7355957 183.95214844 C-51.85847867 180.80199085 -49.30178258 180.68883326 -44.4074707 180.87402344 C-40.50985467 181.80853956 -38.91312557 183.7865497 -36.66137695 186.98339844 C-36.20311523 187.74136719 -36.20311523 187.74136719 -35.7355957 188.51464844 C-34.4155957 187.52464844 -33.0955957 186.53464844 -31.7355957 185.51464844 C-31.09350586 187.30102539 -31.09350586 187.30102539 -30.7355957 189.51464844 C-31.6159668 191.23803711 -31.6159668 191.23803711 -33.0090332 192.93261719 C-33.5040332 193.54685547 -33.9990332 194.16109375 -34.5090332 194.79394531 C-35.03754883 195.42365234 -35.56606445 196.05335938 -36.1105957 196.70214844 C-36.63137695 197.34345703 -37.1521582 197.98476563 -37.6887207 198.64550781 C-41.31608677 203.09513951 -41.31608677 203.09513951 -42.7355957 204.51464844 C-42.87127889 208.17809455 -42.90020997 211.02080565 -41.7355957 214.51464844 C-38.44560288 214.93296248 -38.44560288 214.93296248 -34.7355957 214.51464844 C-31.90148416 212.18115643 -31.90148416 212.18115643 -29.7355957 209.51464844 C-29.0755957 209.18464844 -28.4155957 208.85464844 -27.7355957 208.51464844 C-27.07698363 211.66135058 -26.60911398 213.9834252 -27.3605957 217.13964844 C-27.9690553 219.56946902 -27.9690553 219.56946902 -26.6730957 221.82714844 C-24.79502901 223.74462951 -24.79502901 223.74462951 -21.9230957 224.07714844 C-17.58570242 223.31172609 -15.89834979 221.52679518 -12.7355957 218.51464844 C-12.60282227 219.20171875 -12.47004883 219.88878906 -12.33325195 220.59667969 C-12.06834961 221.94826172 -12.06834961 221.94826172 -11.7980957 223.32714844 C-11.62407227 224.22046875 -11.45004883 225.11378906 -11.27075195 226.03417969 C-10.75818417 228.62862015 -10.75818417 228.62862015 -9.7355957 231.51464844 C-7.07625524 232.10595271 -7.07625524 232.10595271 -3.7355957 231.51464844 C-1.54184523 229.88537177 0.38184203 228.08745232 2.36206055 226.20605469 C4.50565748 224.30014612 6.50468164 223.29082043 9.2644043 222.51464844 C8.94294434 223.04477539 8.62148438 223.57490234 8.2902832 224.12109375 C7.00515201 227.11952931 6.94257211 229.55271915 6.8503418 232.81152344 C6.79233398 234.61943359 6.79233398 234.61943359 6.7331543 236.46386719 C6.68674805 238.34525391 6.68674805 238.34525391 6.6394043 240.26464844 C6.58139648 242.16923828 6.58139648 242.16923828 6.5222168 244.11230469 C6.42796208 247.24627413 6.34235264 250.38023792 6.2644043 253.51464844 C4.9444043 253.51464844 3.6244043 253.51464844 2.2644043 253.51464844 C2.2644043 269.68464844 2.2644043 285.85464844 2.2644043 302.51464844 C3.5844043 302.51464844 4.9044043 302.51464844 6.2644043 302.51464844 C6.5944043 326.60464844 6.9244043 350.69464844 7.2644043 375.51464844 C-16.97184688 375.51464844 -16.97184688 375.51464844 -24.3605957 373.82714844 C-25.6463147 373.55596191 -25.6463147 373.55596191 -26.95800781 373.27929688 C-29.55758773 372.71833615 -32.14642618 372.12166429 -34.7355957 371.51464844 C-35.5423877 371.33272949 -36.34917969 371.15081055 -37.18041992 370.96337891 C-66.73001283 364.22209563 -92.123671 350.21581048 -115.7355957 331.51464844 C-116.54867187 330.8763208 -116.54867187 330.8763208 -117.37817383 330.22509766 C-124.2981344 324.78114553 -124.2981344 324.78114553 -126.7355957 322.51464844 C-126.7355957 321.85464844 -126.7355957 321.19464844 -126.7355957 320.51464844 C-127.3955957 320.51464844 -128.0555957 320.51464844 -128.7355957 320.51464844 C-130.13158966 318.98627574 -131.45147219 317.38814745 -132.7355957 315.76464844 C-133.9421582 314.24871094 -133.9421582 314.24871094 -135.1730957 312.70214844 C-135.59461914 312.17234375 -136.01614258 311.64253906 -136.45043945 311.09667969 C-137.67941599 309.58380584 -138.95660751 308.11048486 -140.2355957 306.63964844 C-146.79831476 299.09252152 -151.87857059 291.22716269 -156.7355957 282.51464844 C-157.30624756 281.5067627 -157.30624756 281.5067627 -157.88842773 280.47851562 C-166.59247725 265.02818853 -172.74692314 249.13660156 -176.8605957 231.88964844 C-177.04235352 231.15230469 -177.22411133 230.41496094 -177.41137695 229.65527344 C-178.31513029 225.86358652 -178.96857912 222.44430212 -178.7355957 218.51464844 C-179.3955957 218.18464844 -180.0555957 217.85464844 -180.7355957 217.51464844 C-182.92598856 203.50439979 -181.91071473 188.63707604 -181.7355957 174.51464844 C-181.73366211 173.76296387 -181.73172852 173.0112793 -181.72973633 172.23681641 C-181.66780418 160.10121127 -178.32425389 148.58081356 -175.27050781 136.91210938 C-174.62671483 134.43604912 -174.62671483 134.43604912 -174.7355957 131.51464844 C-174.0755957 131.51464844 -173.4155957 131.51464844 -172.7355957 131.51464844 C-172.5499707 130.38027344 -172.3643457 129.24589844 -172.1730957 128.07714844 C-170.44898171 120.21868683 -166.90240625 112.8772612 -163.7355957 105.51464844 C-163.16132325 104.1735256 -162.58710067 102.8323814 -162.01293945 101.49121094 C-161.3806543 100.0178125 -161.3806543 100.0178125 -160.7355957 98.51464844 C-160.0755957 98.51464844 -159.4155957 98.51464844 -158.7355957 98.51464844 C-158.4880957 97.66902344 -158.2405957 96.82339844 -157.9855957 95.95214844 C-155.75735998 89.82450021 -152.38588519 84.88198643 -148.44262695 79.76074219 C-145.79645417 76.27893589 -143.28901019 72.69748976 -140.76293945 69.12792969 C-138.59726382 66.33633624 -136.27027873 63.97711828 -133.7355957 61.51464844 C-132.49758116 60.25783207 -131.26211352 58.99850415 -130.02856445 57.73730469 C-128.66018013 56.35048207 -127.29168817 54.96376564 -125.9230957 53.57714844 C-125.24956055 52.88685547 -124.57602539 52.1965625 -123.88208008 51.48535156 C-119.92326352 47.4886516 -115.90378203 43.9719377 -111.29541016 40.73901367 C-109.59024271 39.58014055 -109.59024271 39.58014055 -108.7355957 37.51464844 C-104.2355957 34.51464844 -104.2355957 34.51464844 -101.7355957 34.51464844 C-101.7355957 33.85464844 -101.7355957 33.19464844 -101.7355957 32.51464844 C-101.2715332 32.258125 -100.8074707 32.00160156 -100.3293457 31.73730469 C-99.6384082 31.35445312 -98.9474707 30.97160156 -98.2355957 30.57714844 C-97.40801758 30.12082031 -96.58043945 29.66449219 -95.7277832 29.19433594 C-93.54982856 27.97172432 -91.3937366 26.72917916 -89.2434082 25.45996094 C-67.89405756 12.96519235 -45.12498982 5.4251842 -20.7355957 1.51464844 C-19.53418945 1.29808594 -18.3327832 1.08152344 -17.0949707 0.85839844 C-15.92450195 0.66246094 -14.7540332 0.46652344 -13.5480957 0.26464844 C-12.54391602 0.09449219 -11.53973633 -0.07566406 -10.50512695 -0.25097656 C-6.90250239 -0.47497394 -3.59242312 -0.2951334 0 0 Z " fill="#1F629D" transform="translate(293.735595703125,112.4853515625)"/>
<path d="M0 0 C1.12664062 -0.00515625 2.25328125 -0.0103125 3.4140625 -0.015625 C6.375 0.25 6.375 0.25 9.375 2.25 C5.60336514 5.88516123 1.69748328 9.09749189 -2.71875 11.91796875 C-3.44191406 12.38549561 -4.16507812 12.85302246 -4.91015625 13.3347168 C-6.3735737 14.26983926 -7.85020714 15.18462866 -9.33984375 16.07739258 C-11.33118531 17.35797766 -13.01478681 18.51285238 -14.625 20.25 C-15.40218902 23.88373296 -15.40218902 23.88373296 -14.625 27.25 C-12.40636971 30.15717073 -11.10555071 31.08981643 -7.625 32.25 C1.73958098 33.19319521 9.10319276 31.73319324 17.375 27.25 C18.37853516 26.36248047 18.37853516 26.36248047 19.40234375 25.45703125 C21.375 24.25 21.375 24.25 23.82421875 24.8203125 C26.57661725 26.36300446 28.79446241 28.06736453 31.1875 30.125 C35.66973467 33.8821673 40.24138889 37.452006 44.9375 40.9375 C53.12397611 47.02652473 61.17800039 53.27803967 69.21459961 59.56298828 C72.27392 61.95194793 75.34095015 64.33095403 78.40820312 66.7097168 C85.17964003 72.0127202 85.17964003 72.0127202 85.9375 76.8125 C85.375 80.25 85.375 80.25 83.8125 82.6875 C80.32123199 84.92549231 78.50706559 84.76906264 74.375 84.25 C70.93377312 82.44106926 67.86979788 80.1856003 64.75 77.875 C63.09420865 76.67544837 61.4354427 75.4799898 59.7734375 74.2890625 C59.04817871 73.75490723 58.32291992 73.22075195 57.57568359 72.67041016 C55.25417701 71.17201596 52.96612983 70.19331454 50.375 69.25 C50.375 69.91 50.375 70.57 50.375 71.25 C51.938002 72.63494541 51.938002 72.63494541 53.98828125 74 C54.74173828 74.5259375 55.49519531 75.051875 56.27148438 75.59375 C57.06876953 76.1403125 57.86605469 76.686875 58.6875 77.25 C59.47318359 77.7965625 60.25886719 78.343125 61.06835938 78.90625 C64.15307435 81.0484861 67.25008719 83.16672479 70.375 85.25 C71.01505172 88.28880413 70.86780423 91.19237378 70.375 94.25 C68.8125 96.3125 68.8125 96.3125 66.375 97.25 C60.01295797 97.95260416 57.18416989 96.28964792 52.4375 92.5 C51.22060257 91.57655721 50.00056763 90.65723356 48.77734375 89.7421875 C48.19581543 89.30616211 47.61428711 88.87013672 47.01513672 88.42089844 C43.98223942 86.25570411 40.7748313 84.74592577 37.375 83.25 C38.894764 87.46946898 41.60404457 88.9795444 45.3125 91.3125 C52.62280331 95.94028617 52.62280331 95.94028617 54.375 98.25 C54.3083964 101.97980144 54.17928591 104.32656062 51.6875 107.1875 C48.57287739 108.61854282 46.80871085 108.63285278 43.375 108.25 C40.49193779 106.86139768 37.89284196 105.10953447 35.25 103.3125 C33.85475699 102.38191131 32.45641396 101.45595009 31.0546875 100.53515625 C30.44351074 100.12144775 29.83233398 99.70773926 29.20263672 99.28149414 C27.2715968 98.19164059 25.5401167 97.68690562 23.375 97.25 C27.25526891 101.49404412 31.41754346 104.35917547 36.375 107.25 C35.625 114 35.625 114 33.375 116.25 C26.93801598 116.90460854 23.72225231 115.81483487 18.375 112.25 C18.375 110.93 18.375 109.61 18.375 108.25 C15.13258499 110.01859 12.58931222 111.9660461 9.9375 114.5 C7.26998975 116.84717605 6.77927351 117.2423722 3.0625 117.3125 C0.375 116.25 0.375 116.25 -1.625 113.25 C-2.00390625 111.2421875 -2.00390625 111.2421875 -2.1875 109.125 C-2.19186899 105.47536034 -2.19186899 105.47536034 -3.625 104.25 C-4.32625 105.075 -5.0275 105.9 -5.75 106.75 C-8.625 109.25 -8.625 109.25 -11.6875 109.875 C-14.625 109.25 -14.625 109.25 -17.0625 107.3125 C-19.01348219 103.4885749 -18.63141203 101.26718228 -17.88671875 97.140625 C-17.75716797 96.20476562 -17.75716797 96.20476562 -17.625 95.25 C-17.955 94.92 -18.285 94.59 -18.625 94.25 C-19.140625 95.054375 -19.65625 95.85875 -20.1875 96.6875 C-22.625 99.25 -22.625 99.25 -26.125 100.3125 C-29.625 100.25 -29.625 100.25 -32.0625 98.75 C-34.19726529 95.33437554 -34.0204764 93.23421439 -33.625 89.25 C-31.76171875 86.30078125 -31.76171875 86.30078125 -29.3125 83.5625 C-28.51199219 82.65113281 -27.71148437 81.73976563 -26.88671875 80.80078125 C-26.14035156 79.95902344 -25.39398438 79.11726563 -24.625 78.25 C-22.77992526 76.23295513 -22.77992526 76.23295513 -21.625 74.25 C-21.955 73.26 -22.285 72.27 -22.625 71.25 C-23.945 72.24 -25.265 73.23 -26.625 74.25 C-27.07875 73.46625 -27.5325 72.6825 -28 71.875 C-29.50928742 69.21301969 -29.50928742 69.21301969 -31.625 67.25 C-35.33584605 66.68231824 -38.91291879 66.70205169 -42.625 67.25 C-45.64909364 69.52127334 -45.64909364 69.52127334 -47.625 72.25 C-50.625 73.25 -50.625 73.25 -53.05078125 72.17578125 C-54.47970703 71.37720703 -54.47970703 71.37720703 -55.9375 70.5625 C-61.62127703 67.58594119 -67.20503223 65.73247431 -73.3984375 64.109375 C-76.52447501 63.27677421 -79.56710834 62.30317115 -82.625 61.25 C-82.92853844 55.32301264 -81.83379343 50.31953817 -80.25 44.625 C-80.02828125 43.79226563 -79.8065625 42.95953125 -79.578125 42.1015625 C-78.70055777 38.85972593 -77.81399365 35.71765581 -76.5546875 32.6015625 C-75.34473474 29.54109374 -74.76460224 26.47582 -74.125 23.25 C-73.28887309 19.03301211 -72.35658203 15.19084187 -70.625 11.25 C-69.86058594 11.394375 -69.09617188 11.53875 -68.30859375 11.6875 C-53.2636766 14.29456146 -41.72627967 13.7017926 -27.69287109 8.06689453 C-24.45130185 6.78634073 -21.16458042 5.65152501 -17.875 4.5 C-13.46185967 2.93599801 -13.46185967 2.93599801 -9.1484375 1.125 C-6.00164212 0.03385114 -3.32463296 -0.01528567 0 0 Z " fill="#F6FCFC" transform="translate(283.625,227.75)"/>
<path d="M0 0 C6.92428782 3.12746325 13.00207529 4.39137693 20.58862305 4.19335938 C21.77391602 4.185625 21.77391602 4.185625 22.9831543 4.17773438 C28.40698198 4.10671863 33.7067976 3.61070573 39.08862305 2.94335938 C49.49270049 36.479169 49.49270049 36.479169 50.08862305 51.94335938 C45.40905895 53.83318334 40.88902485 55.2631248 35.96362305 56.38085938 C32.3790703 57.22508024 29.56015355 57.9986503 26.58862305 60.19335938 C24.08862305 61.94335938 24.08862305 61.94335938 22.15136719 61.71899414 C19.87505402 60.86305297 18.441017 59.84831898 16.5847168 58.28320312 C15.93116211 57.74018555 15.27760742 57.19716797 14.60424805 56.63769531 C13.9184668 56.05793945 13.23268555 55.47818359 12.52612305 54.88085938 C6.8036728 50.12348415 1.03092158 45.60296835 -5.06762695 41.33398438 C-5.67606445 40.87507813 -6.28450195 40.41617188 -6.91137695 39.94335938 C-6.91137695 39.61335938 -6.91137695 39.28335938 -6.91137695 38.94335938 C-2.45637695 38.44835937 -2.45637695 38.44835937 2.08862305 37.94335938 C2.08862305 37.28335938 2.08862305 36.62335938 2.08862305 35.94335938 C1.16049805 36.00523437 0.23237305 36.06710937 -0.72387695 36.13085938 C-12.5723403 35.96464847 -20.24324264 30.30625339 -28.91137695 22.94335938 C-29.75829102 22.23695313 -30.60520508 21.53054688 -31.4777832 20.80273438 C-36.70888474 16.3483438 -36.70888474 16.3483438 -37.91137695 13.94335938 C-44.15587298 13.12885989 -47.29611223 15.15088232 -52.5090332 18.47460938 C-58.70505089 22.26274377 -65.80368431 22.88521079 -72.91137695 21.94335938 C-76.09887695 19.94335938 -76.09887695 19.94335938 -77.91137695 17.94335938 C-76.58464792 14.85257211 -75.37862831 13.26172283 -72.56762695 11.42773438 C-71.90335693 10.98502197 -71.23908691 10.54230957 -70.5546875 10.08618164 C-69.84739502 9.62655029 -69.14010254 9.16691895 -68.41137695 8.69335938 C-63.59349208 5.49625489 -58.98841754 2.28554457 -54.59887695 -1.49414062 C-37.70013861 -15.18746105 -17.67878946 -8.31064182 0 0 Z " fill="#FAFDFD" transform="translate(348.911376953125,235.056640625)"/>
<path d="M0 0 C1.12664062 -0.00515625 2.25328125 -0.0103125 3.4140625 -0.015625 C6.375 0.25 6.375 0.25 9.375 2.25 C5.60336514 5.88516123 1.69748328 9.09749189 -2.71875 11.91796875 C-3.44191406 12.38549561 -4.16507812 12.85302246 -4.91015625 13.3347168 C-6.3735737 14.26983926 -7.85020714 15.18462866 -9.33984375 16.07739258 C-11.33118531 17.35797766 -13.01478681 18.51285238 -14.625 20.25 C-15.40218902 23.88373296 -15.40218902 23.88373296 -14.625 27.25 C-12.40636971 30.15717073 -11.10555071 31.08981643 -7.625 32.25 C-7.78419922 32.94907471 -7.94339844 33.64814941 -8.10742188 34.3684082 C-8.65218879 37.40137232 -8.81743682 40.27606062 -8.90625 43.35546875 C-8.94363281 44.50337891 -8.98101562 45.65128906 -9.01953125 46.83398438 C-9.09018644 49.24803687 -9.16049564 51.66209951 -9.23046875 54.07617188 C-9.26785156 55.22021484 -9.30523437 56.36425781 -9.34375 57.54296875 C-9.37404297 58.5899292 -9.40433594 59.63688965 -9.43554688 60.71557617 C-9.625 63.25 -9.625 63.25 -10.625 65.25 C-13.265 65.25 -15.905 65.25 -18.625 65.25 C-18.83125 65.806875 -19.0375 66.36375 -19.25 66.9375 C-21.17500774 70.17501302 -23.66350902 71.93231141 -26.625 74.25 C-27.07875 73.46625 -27.5325 72.6825 -28 71.875 C-29.50928742 69.21301969 -29.50928742 69.21301969 -31.625 67.25 C-35.33584605 66.68231824 -38.91291879 66.70205169 -42.625 67.25 C-45.64909364 69.52127334 -45.64909364 69.52127334 -47.625 72.25 C-50.625 73.25 -50.625 73.25 -53.05078125 72.17578125 C-54.47970703 71.37720703 -54.47970703 71.37720703 -55.9375 70.5625 C-61.62127703 67.58594119 -67.20503223 65.73247431 -73.3984375 64.109375 C-76.52447501 63.27677421 -79.56710834 62.30317115 -82.625 61.25 C-82.92853844 55.32301264 -81.83379343 50.31953817 -80.25 44.625 C-80.02828125 43.79226563 -79.8065625 42.95953125 -79.578125 42.1015625 C-78.70055777 38.85972593 -77.81399365 35.71765581 -76.5546875 32.6015625 C-75.34473474 29.54109374 -74.76460224 26.47582 -74.125 23.25 C-73.28887309 19.03301211 -72.35658203 15.19084187 -70.625 11.25 C-69.86058594 11.394375 -69.09617188 11.53875 -68.30859375 11.6875 C-53.2636766 14.29456146 -41.72627967 13.7017926 -27.69287109 8.06689453 C-24.45130185 6.78634073 -21.16458042 5.65152501 -17.875 4.5 C-13.46185967 2.93599801 -13.46185967 2.93599801 -9.1484375 1.125 C-6.00164212 0.03385114 -3.32463296 -0.01528567 0 0 Z " fill="#FAFCFD" transform="translate(283.625,227.75)"/>
<path d="M0 0 C0.66 0.33 1.32 0.66 2 1 C1.85890014 3.10448938 1.71195825 5.2085877 1.5625 7.3125 C1.48128906 8.48425781 1.40007812 9.65601563 1.31640625 10.86328125 C1 14 1 14 0 17 C-0.29868439 22.09740957 -0.29552259 27.20710144 -0.3125 32.3125 C-0.31511841 33.05619843 -0.31773682 33.79989685 -0.32043457 34.56613159 C-0.32528543 47.42801522 0.98064134 59.47242558 4 72 C4.32819733 73.46714114 4.65507272 74.93457877 4.98046875 76.40234375 C6.9895298 85.17747027 9.7523691 93.60946423 13 102 C13.41378906 103.07507813 13.82757813 104.15015625 14.25390625 105.2578125 C16.38614554 110.5917528 18.70796384 115.42804312 21.88671875 120.2109375 C23 122 23 122 24.4375 125.4375 C26.15611425 129.35594049 28.32972379 132.59992584 30.79296875 136.08203125 C32 138 32 138 32 140 C33.32 139.01 34.64 138.02 36 137 C36.43828125 137.57105469 36.8765625 138.14210938 37.328125 138.73046875 C41.96023159 144.6524099 46.84907753 150.19313003 52.04980469 155.61987305 C54.36743092 158.06988149 55.91947995 159.75843984 57 163 C57.99 163.33 58.98 163.66 60 164 C60 164.66 60 165.32 60 166 C60.53625 166.2475 61.0725 166.495 61.625 166.75 C64.5823982 168.30652537 67.29724051 170.03435673 70 172 C70 172.66 70 173.32 70 174 C70.86238281 174.40412109 70.86238281 174.40412109 71.7421875 174.81640625 C74.04917751 176.0257799 76.02485691 177.3981478 78.125 178.9375 C101.28651929 195.21499526 125.38507777 205.01586464 153.1875 210.3125 C154.41303589 210.55178223 154.41303589 210.55178223 155.66333008 210.79589844 C164.37101803 212.33389732 173.18201199 212.60482148 182 213 C181.98525131 212.42165405 181.97050262 211.84330811 181.95530701 211.24743652 C181.80110777 205.14642229 181.65678701 199.04522745 181.51782227 192.94384766 C181.46494084 190.67653641 181.40966498 188.40927954 181.35180664 186.14208984 C181.0274352 173.36467589 180.85418057 160.74141652 182 148 C181.34 147.67 180.68 147.34 180 147 C181.32 147 182.64 147 184 147 C184.33 171.09 184.66 195.18 185 220 C160.76374883 220 160.76374883 220 153.375 218.3125 C152.08928101 218.04131348 152.08928101 218.04131348 150.77758789 217.76464844 C148.17800798 217.20368771 145.58916952 216.60701586 143 216 C141.78981201 215.72712158 141.78981201 215.72712158 140.55517578 215.44873047 C111.00558287 208.70744719 85.6119247 194.70116204 62 176 C61.45794922 175.57444824 60.91589844 175.14889648 60.35742188 174.71044922 C53.43746131 169.26649709 53.43746131 169.26649709 51 167 C51 166.34 51 165.68 51 165 C50.34 165 49.68 165 49 165 C47.60400604 163.47162731 46.28412351 161.87349901 45 160.25 C43.7934375 158.7340625 43.7934375 158.7340625 42.5625 157.1875 C42.14097656 156.65769531 41.71945313 156.12789062 41.28515625 155.58203125 C40.05617972 154.0691574 38.7789882 152.59583643 37.5 151.125 C30.93728094 143.57787308 25.85702512 135.71251425 21 127 C20.61956543 126.32807617 20.23913086 125.65615234 19.84716797 124.96386719 C11.14311845 109.51354009 4.98867256 93.62195312 0.875 76.375 C0.69324219 75.63765625 0.51148437 74.9003125 0.32421875 74.140625 C-0.57953458 70.34893808 -1.23298342 66.92965368 -1 63 C-1.66 62.67 -2.32 62.34 -3 62 C-4.53354397 52.19110555 -4.09689564 41.89675086 -4.125 32 C-4.12967285 30.84322754 -4.1343457 29.68645508 -4.13916016 28.49462891 C-4.11001995 13.02566366 -4.11001995 13.02566366 -1 7 C-0.61250787 4.67504723 -0.27017161 2.34148732 0 0 Z " fill="#123F67" transform="translate(116,268)"/>
<path d="M0 0 C6.4040625 -0.0928125 6.4040625 -0.0928125 12.9375 -0.1875 C14.26515381 -0.21481201 15.59280762 -0.24212402 16.96069336 -0.27026367 C25.21523889 -0.32785785 31.95740183 0.33360546 38.9375 4.9375 C42.77438394 8.77438394 43.31184783 11.93825004 43.375 17.3125 C43.26271905 23.20394747 42.77432583 26.45145348 39 31 C33.11364231 35.43866879 27.94615978 36.12913111 20.75 36.0625 C19.48671875 36.05347656 18.2234375 36.04445313 16.921875 36.03515625 C15.95765625 36.02355469 14.9934375 36.01195312 14 36 C14 40.29 14 44.58 14 49 C9.38 49 4.76 49 0 49 C0 32.83 0 16.66 0 0 Z " fill="#EEF5F9" transform="translate(244,366)"/>
<path d="M0 0 C2.703125 0.28515625 2.703125 0.28515625 6 1 C7.10859375 1.22558594 8.2171875 1.45117188 9.359375 1.68359375 C10.47828125 1.93238281 11.5971875 2.18117187 12.75 2.4375 C14.44382813 2.80681641 14.44382813 2.80681641 16.171875 3.18359375 C19 4 19 4 21 6 C21.16867907 12.01191046 19.38225473 18.11396852 17.85546875 23.8828125 C17.64440994 24.70014862 17.43335114 25.51748474 17.21589661 26.35958862 C16.54555759 28.94960423 15.86665437 31.53728373 15.1875 34.125 C14.74358267 35.83579282 14.30021932 37.54672948 13.85742188 39.2578125 C12.99299337 42.59330029 12.12146825 45.92680035 11.24365234 49.25878906 C10.43193572 52.34040903 9.63573937 55.42529246 8.85400391 58.51464844 C8.50294414 59.88216517 8.15187074 61.2496784 7.80078125 62.6171875 C7.49954346 63.80683105 7.19830566 64.99647461 6.88793945 66.22216797 C6 69 6 69 4 71 C-2.46914413 70.5780993 -12.37047334 69.62952666 -17 65 C-16.67165713 55.31388526 -13.6515191 45.73156112 -10.4921875 36.6171875 C-8.93815391 32.01489498 -7.93117663 27.38667654 -7 22.625 C-3.00223844 3.00223844 -3.00223844 3.00223844 0 0 Z " fill="#F7FBFD" transform="translate(189,225)"/>
<path d="M0 0 C2.33031342 3.28241394 3.51959517 6.29692908 4.40234375 10.19921875 C4.64968262 11.25157715 4.89702148 12.30393555 5.15185547 13.38818359 C5.57168701 15.17603271 5.57168701 15.17603271 6 17 C6.71713536 19.86412269 7.45403184 22.72306113 8.19140625 25.58203125 C8.58276326 27.106099 8.97403835 28.63018779 9.36523438 30.15429688 C9.66046997 31.30273071 9.66046997 31.30273071 9.96166992 32.47436523 C10.56590797 34.82576214 11.16870993 37.17752441 11.77148438 39.52929688 C12.1613707 41.04689752 12.55134165 42.56447642 12.94140625 44.08203125 C13.11853653 44.77383987 13.29566681 45.4656485 13.47816467 46.17842102 C14.30959256 49.40678735 15.18017971 52.6126738 16.12084961 55.8112793 C16.92617586 58.7322363 17.18204146 60.99631592 17 64 C13.02136968 65.81633123 9.03636872 67.39817812 4.875 68.75 C3.66457031 69.14445312 3.66457031 69.14445312 2.4296875 69.546875 C-0.41644583 70.07766514 -2.25427678 69.90599621 -5 69 C-7.11753719 65.82369421 -7.7248195 63.58421192 -8.5859375 59.890625 C-8.87500977 58.66786865 -9.16408203 57.4451123 -9.46191406 56.18530273 C-9.61116333 55.54196991 -9.7604126 54.89863708 -9.91418457 54.23580933 C-10.68333477 50.92128133 -11.47166838 47.61131177 -12.2578125 44.30078125 C-12.70882324 42.3973999 -12.70882324 42.3973999 -13.16894531 40.45556641 C-14.92970712 33.13423191 -16.92052248 25.87447326 -18.94140625 18.62109375 C-19.22886719 17.54988281 -19.51632812 16.47867188 -19.8125 15.375 C-20.06644531 14.45460937 -20.32039063 13.53421875 -20.58203125 12.5859375 C-21.05902439 9.63482104 -21.06006825 7.80466488 -20 5 C-17.890625 3.671875 -17.890625 3.671875 -15.25 2.75 C-14.38890625 2.43546875 -13.5278125 2.1209375 -12.640625 1.796875 C-8.54125697 0.55978761 -4.27423053 -0.6748785 0 0 Z " fill="#F7FDFC" transform="translate(412,225)"/>
<path d="M0 0 C3.4318468 0.07749331 5.51815116 0.51643706 8.25 2.625 C10.7454447 5.43237529 11.53931408 6.75049634 11.75 10.4375 C12.41386719 10.36789062 13.07773437 10.29828125 13.76171875 10.2265625 C20.67972655 9.80239268 20.67972655 9.80239268 23.52734375 11.4921875 C26.23313418 14.3940497 27.02844521 16.98474121 27.0625 20.8125 C26.959375 22.00875 26.85625 23.205 26.75 24.4375 C27.636875 24.64375 28.52375 24.85 29.4375 25.0625 C33.61112795 26.79494934 35.28901222 28.67363634 37.75 32.4375 C38.26101264 35.69520557 38.43196006 37.43250622 36.5625 40.1875 C34.75 41.4375 34.75 41.4375 32.5625 42.1875 C29.60963881 43.49988275 28.11970356 44.90145459 25.8125 47.125 C22.18724916 50.42130559 22.18724916 50.42130559 18.375 50.5625 C15.75 49.4375 15.75 49.4375 13.75 46.4375 C13.37109375 44.4296875 13.37109375 44.4296875 13.1875 42.3125 C13.18313101 38.66286034 13.18313101 38.66286034 11.75 37.4375 C11.04875 38.2625 10.3475 39.0875 9.625 39.9375 C6.75 42.4375 6.75 42.4375 3.6875 43.0625 C0.75 42.4375 0.75 42.4375 -1.6875 40.5 C-3.63848219 36.6760749 -3.25641203 34.45468228 -2.51171875 30.328125 C-2.42535156 29.70421875 -2.33898437 29.0803125 -2.25 28.4375 C-2.58 28.1075 -2.91 27.7775 -3.25 27.4375 C-3.765625 28.241875 -4.28125 29.04625 -4.8125 29.875 C-7.25 32.4375 -7.25 32.4375 -10.75 33.5 C-14.25 33.4375 -14.25 33.4375 -16.6875 31.9375 C-18.82226529 28.52187554 -18.6454764 26.42171439 -18.25 22.4375 C-16.38671875 19.48828125 -16.38671875 19.48828125 -13.9375 16.75 C-13.13699219 15.83863281 -12.33648437 14.92726563 -11.51171875 13.98828125 C-10.39216797 12.72564453 -10.39216797 12.72564453 -9.25 11.4375 C-6.5088684 8.11582307 -6.13712554 6.72672944 -6.25 2.4375 C-3.89048821 0.07798821 -3.23074365 0.09340585 0 0 Z " fill="#275F92" transform="translate(268.25,294.5625)"/>
<path d="M0 0 C0.99 0.66 1.98 1.32 3 2 C2.05066101 5.35433109 1.10251165 8.69246505 0 12 C-1.60875 11.505 -1.60875 11.505 -3.25 11 C-8.79160922 9.58469692 -14.32102129 9.82963064 -20 10 C-20.33 11.65 -20.66 13.3 -21 15 C-16.4801549 16.79088202 -12.10507123 18.24263001 -7.375 19.375 C-2.39119773 20.6832481 0.41438348 22.32002515 4 26 C6.18918871 30.37837741 5.37636326 35.69527403 4.0625 40.25 C0.45598006 45.05869326 -5.11689431 47.86548459 -11 49 C-19.04405176 49.84332801 -28.22638894 48.5157407 -35 44 C-34.745504 42.51793505 -34.47088238 41.03931385 -34.1875 39.5625 C-34.03667969 38.73878906 -33.88585937 37.91507812 -33.73046875 37.06640625 C-33.48941406 36.38449219 -33.24835938 35.70257813 -33 35 C-31.515 34.505 -31.515 34.505 -30 34 C-29.10023438 34.47050781 -28.20046875 34.94101562 -27.2734375 35.42578125 C-23.43093472 37.27366743 -20.85924088 37.30733701 -16.625 37.1875 C-14.75714844 37.14689453 -14.75714844 37.14689453 -12.8515625 37.10546875 C-11.44003906 37.05326172 -11.44003906 37.05326172 -10 37 C-9.67 35.35 -9.34 33.7 -9 32 C-12.06560123 30.61553493 -14.96210273 29.79210458 -18.25 29.1875 C-24.06437394 27.95267477 -29.66620027 25.54979474 -33.73046875 21.109375 C-35.88997475 17.52127272 -35.63435289 14.05281014 -35 10 C-32.29014921 4.68066326 -28.75171245 1.31033926 -23.375 -1.25 C-15.67881207 -2.96026399 -7.48797968 -2.52719314 0 0 Z " fill="#F0F7FB" transform="translate(231,367)"/>
<path d="M0 0 C14.19 0 28.38 0 43 0 C43 3.3 43 6.6 43 10 C38.05 10 33.1 10 28 10 C28 22.87 28 35.74 28 49 C23.71 49 19.42 49 15 49 C15 36.13 15 23.26 15 10 C10.05 10 5.1 10 0 10 C0 6.7 0 3.4 0 0 Z " fill="#F9FEFD" transform="translate(362,366)"/>
<path d="M0 0 C4.29 0 8.58 0 13 0 C13 12.54 13 25.08 13 38 C20.59 38 28.18 38 36 38 C36 41.3 36 44.6 36 48 C24.12 48 12.24 48 0 48 C0 32.16 0 16.32 0 0 Z " fill="#F6FDFB" transform="translate(297,366)"/>
<path d="M0 0 C3.36663541 3.27229886 6.39967271 6.63285895 9.3125 10.3125 C12.8179142 14.66485992 16.49158073 18.62076088 20.56640625 22.44140625 C22 24 22 24 22 26 C22.99 26.33 23.98 26.66 25 27 C25 27.66 25 28.32 25 29 C25.53625 29.2475 26.0725 29.495 26.625 29.75 C29.5823982 31.30652537 32.29724051 33.03435673 35 35 C35 35.66 35 36.32 35 37 C35.57492188 37.26941406 36.14984375 37.53882813 36.7421875 37.81640625 C39.04917751 39.0257799 41.02485691 40.3981478 43.125 41.9375 C74.48341131 63.97562215 109.65917019 75.11453049 148 76 C148 77.65 148 79.3 148 81 C140.92182259 81.1996978 134.335939 81.11377388 127.42578125 79.5078125 C123.9833017 78.78716461 120.53381813 78.51765362 117.03125 78.24609375 C115 78 115 78 113 77 C111.44009075 76.8460053 109.87675979 76.72561089 108.3125 76.625 C103.69743163 76.20725674 100.21231747 74.9869422 96 73 C93.66836622 72.32741333 91.3347961 71.66152556 89 71 C87.18370678 70.34373813 85.37147198 69.67618125 83.5625 69 C80.18586247 67.74249361 76.88899889 66.66990819 73.375 65.875 C72.26125 65.58625 71.1475 65.2975 70 65 C69.67 64.34 69.34 63.68 69 63 C66.45425314 61.90833425 63.86332715 61.01454802 61.25 60.09765625 C60.5075 59.73542969 59.765 59.37320313 59 59 C58.67 58.01 58.34 57.02 58 56 C56.865625 55.7525 55.73125 55.505 54.5625 55.25 C48.73456458 53.96063376 44.66231375 50.58787107 40 47 C39.43909668 46.57444824 38.87819336 46.14889648 38.30029297 45.71044922 C32.02618126 40.94416192 25.86402073 36.21120192 20.4375 30.47265625 C18.81619244 28.75527442 18.81619244 28.75527442 16 26.5625 C8.47622869 20.13594534 2.82832575 11.9296949 -3 4 C-2.01 2.68 -1.02 1.36 0 0 Z " fill="#053B6B" transform="translate(151,405)"/>
<path d="M0 0 C4.29 0 8.58 0 13 0 C13 16.17 13 32.34 13 49 C8.71 49 4.42 49 0 49 C0 32.83 0 16.66 0 0 Z " fill="#F2FCF9" transform="translate(341,366)"/>
<path d="M0 0 C0 38.61 0 77.22 0 117 C-0.33 117 -0.66 117 -1 117 C-1 79.05 -1 41.1 -1 2 C-14.365 2.495 -14.365 2.495 -28 3 C-28 3.66 -28 4.32 -28 5 C-28.78125244 5.16604736 -29.56250488 5.33209473 -30.36743164 5.50317383 C-33.93407451 6.2655844 -37.49825999 7.03893739 -41.0625 7.8125 C-42.90618164 8.20405273 -42.90618164 8.20405273 -44.78710938 8.60351562 C-50.87285353 9.93220909 -56.36665441 11.36025389 -62 14 C-65.19087627 15.12154769 -68.42536022 16.11222663 -71.65820312 17.10546875 C-75.32607295 18.27948621 -77.97894687 19.65479768 -81 22 C-84.25 22.1875 -84.25 22.1875 -87 22 C-87 22.66 -87 23.32 -87 24 C-88.0725 24.45375 -89.145 24.9075 -90.25 25.375 C-90.89195312 25.6534375 -91.53390625 25.931875 -92.1953125 26.21875 C-93.49981112 26.78346802 -94.81058282 27.33376939 -96.125 27.875 C-98.84659744 29.50795846 -100.82326401 31.70869895 -103 34 C-105 36 -105 36 -108 37.125 C-120.81251903 42.4767312 -133.33510894 56.31754852 -142 67 C-142.6084375 67.72058594 -143.216875 68.44117188 -143.84375 69.18359375 C-157.44495901 85.61838797 -167.59269871 104.04385888 -175 124 C-175.33 124 -175.66 124 -176 124 C-175.52598549 117.43903731 -173.72983743 112.42226316 -170.9375 106.5 C-170.37192383 105.26636719 -170.37192383 105.26636719 -169.79492188 104.0078125 C-168.8729514 102.00048438 -167.94127457 99.99832944 -167 98 C-166.34 98 -165.68 98 -165 98 C-164.7525 97.154375 -164.505 96.30875 -164.25 95.4375 C-162.02176428 89.30985177 -158.65028949 84.367338 -154.70703125 79.24609375 C-152.06085846 75.76428745 -149.55341448 72.18284133 -147.02734375 68.61328125 C-144.86166812 65.8216878 -142.53468303 63.46246984 -140 61 C-138.76198546 59.74318363 -137.52651782 58.48385571 -136.29296875 57.22265625 C-134.92458442 55.83583364 -133.55609247 54.44911721 -132.1875 53.0625 C-131.51396484 52.37220703 -130.84042969 51.68191406 -130.14648438 50.97070312 C-126.18766782 46.97400316 -122.16818632 43.45728927 -117.55981445 40.22436523 C-115.85464701 39.06549211 -115.85464701 39.06549211 -115 37 C-110.5 34 -110.5 34 -108 34 C-108 33.34 -108 32.68 -108 32 C-107.5359375 31.74347656 -107.071875 31.48695313 -106.59375 31.22265625 C-105.9028125 30.83980469 -105.211875 30.45695312 -104.5 30.0625 C-103.67242187 29.60617188 -102.84484375 29.14984375 -101.9921875 28.6796875 C-99.81423285 27.45707588 -97.65814089 26.21453072 -95.5078125 24.9453125 C-74.15846186 12.45054391 -51.38939411 4.91053576 -27 1 C-25.79859375 0.7834375 -24.5971875 0.566875 -23.359375 0.34375 C-22.18890625 0.1478125 -21.0184375 -0.048125 -19.8125 -0.25 C-18.80832031 -0.42015625 -17.80414063 -0.5903125 -16.76953125 -0.765625 C-11.18464949 -1.11287153 -5.57918446 -0.42916804 0 0 Z " fill="#4285BC" transform="translate(300,113)"/>
<path d="M0 0 C3.8053125 -0.12375 3.8053125 -0.12375 7.6875 -0.25 C8.87218872 -0.30462402 8.87218872 -0.30462402 10.08081055 -0.36035156 C13.80335904 -0.41871495 15.68408043 -0.18294427 18.98828125 1.73046875 C21.24467663 4.27603325 21.63569825 5.22093062 21.5 8.5625 C21.4896875 9.32691406 21.479375 10.09132813 21.46875 10.87890625 C20.8995363 13.45459823 20.07446695 14.40855845 18 16 C17.34 16 16.68 16 16 16 C16.3609375 16.55429687 16.721875 17.10859375 17.09375 17.6796875 C17.5578125 18.40414063 18.021875 19.12859375 18.5 19.875 C19.19609375 20.95394531 19.19609375 20.95394531 19.90625 22.0546875 C21 24 21 24 21 26 C18.3125 26.4375 18.3125 26.4375 15 26 C13.52059363 24.31295764 12.41697672 22.52944952 11.234375 20.625 C10.02377793 18.71409108 10.02377793 18.71409108 7.1875 18.0625 C6.465625 18.041875 5.74375 18.02125 5 18 C5 20.31 5 22.62 5 25 C3.35 25 1.7 25 0 25 C0 16.75 0 8.5 0 0 Z " fill="#2F699F" transform="translate(276,266)"/>
<path d="M0 0 C3.63233376 0.85012067 5.41367968 1.94098966 7.9375 4.6875 C8.63275095 8.34872975 7.96901173 9.63861092 5.92578125 12.80859375 C5.04605464 13.92379605 4.15364551 15.02908948 3.25 16.125 C2.81494141 16.67220703 2.37988281 17.21941406 1.93164062 17.78320312 C1.05407766 18.88178195 0.16806401 19.97366409 -0.72631836 21.05859375 C-1.62813208 22.15797272 -2.51415284 23.2704715 -3.38500977 24.39453125 C-5.77788006 27.43067554 -6.8341998 28.6154052 -10.625 29.8125 C-14.0625 29.6875 -14.0625 29.6875 -16.5 28.1875 C-18.63029175 24.77903319 -18.44567499 22.66241419 -18.0625 18.6875 C-16.3046875 15.84375 -16.3046875 15.84375 -13.9375 13.1875 C-13.11378906 12.25292969 -12.29007813 11.31835938 -11.44140625 10.35546875 C-10.65636719 9.47503906 -9.87132812 8.59460938 -9.0625 7.6875 C-7.99959007 6.2919788 -6.93701821 4.89619994 -5.875 3.5 C-3.0625 0.6875 -3.0625 0.6875 0 0 Z " fill="#F0F7FB" transform="translate(268.0625,298.3125)"/>
<path d="M0 0 C3.25 0.6875 3.25 0.6875 5.1875 1.8125 C6.75367612 4.57634021 6.53581745 6.543508 6.25 9.6875 C4.7109375 12.43359375 4.7109375 12.43359375 2.625 15.125 C1.89796875 16.06988281 1.1709375 17.01476562 0.421875 17.98828125 C-8.00377856 28.45973199 -8.00377856 28.45973199 -12.625 29.0625 C-15.75 28.6875 -15.75 28.6875 -18.1875 26.5 C-19.75 23.6875 -19.75 23.6875 -19.57421875 21.3125 C-17.99464099 16.28180685 -14.10538942 12.65514294 -10.75 8.6875 C-10.14285156 7.88699219 -9.53570312 7.08648437 -8.91015625 6.26171875 C-4.67696775 0.85744409 -4.67696775 0.85744409 0 0 Z " fill="#EEF6FA" transform="translate(284.75,308.3125)"/>
<path d="M0 0 C0.804375 0.14759766 1.60875 0.29519531 2.4375 0.44726562 C4.3775881 0.80525807 6.31423961 1.18180046 8.25 1.5625 C7.92 2.2225 7.59 2.8825 7.25 3.5625 C0.28479015 3.6719012 -6.54251626 3.51395203 -13.47265625 2.78125 C-15.86640493 2.5146926 -15.86640493 2.5146926 -18.75 2.5625 C-19.08 3.5525 -19.41 4.5425 -19.75 5.5625 C-19.09 5.8925 -18.43 6.2225 -17.75 6.5625 C-18.08 6.8925 -18.41 7.2225 -18.75 7.5625 C-18.85746312 8.94079815 -18.89679331 10.32449051 -18.90821838 11.70692444 C-18.9180072 12.60019943 -18.92779602 13.49347443 -18.93788147 14.41381836 C-18.94363693 15.40140137 -18.9493924 16.38898438 -18.95532227 17.40649414 C-18.96522186 18.44051865 -18.97512146 19.47454315 -18.98532104 20.53990173 C-19.01704213 23.97579619 -19.04173524 27.41170451 -19.06640625 30.84765625 C-19.08696663 33.222777 -19.10796284 35.59789402 -19.12937927 37.9730072 C-19.18469461 44.23822005 -19.23406202 50.50346643 -19.28222656 56.76873779 C-19.33237268 63.15640259 -19.38809462 69.54401842 -19.44335938 75.93164062 C-19.55105661 88.47521834 -19.6526649 101.01883782 -19.75 113.5625 C-19.14101868 113.23718292 -18.53203735 112.91186584 -17.90460205 112.57669067 C-15.2859465 111.34406582 -13.43202746 111.33363922 -10.546875 111.3671875 C-9.5671875 111.37363281 -8.5875 111.38007813 -7.578125 111.38671875 C-6.56234375 111.40347656 -5.5465625 111.42023438 -4.5 111.4375 C-3.46875 111.44652344 -2.4375 111.45554687 -1.375 111.46484375 C1.16690287 111.48837989 3.7083328 111.52125977 6.25 111.5625 C6.25 112.2225 6.25 112.8825 6.25 113.5625 C5.06664062 113.52769531 3.88328125 113.49289063 2.6640625 113.45703125 C1.06772271 113.42886055 -0.52863267 113.40156396 -2.125 113.375 C-2.89972656 113.34986328 -3.67445313 113.32472656 -4.47265625 113.29882812 C-11.16763159 113.21583256 -14.85485157 114.49395547 -21.75 116.5625 C-21.75 77.9525 -21.75 39.3425 -21.75 -0.4375 C-13.53733547 -1.12188871 -7.71271521 -1.54123136 0 0 Z " fill="#86DDD1" transform="translate(321.75,113.4375)"/>
<path d="M0 0 C0.66 0 1.32 0 2 0 C1.11903261 6.64729942 -1.53727024 11.95168242 -4.4375 17.9375 C-5.23861206 19.60353271 -5.23861206 19.60353271 -6.0559082 21.30322266 C-9.86872174 29.07351851 -14.09447425 36.27957326 -19.13671875 43.3046875 C-21.12701053 45.91545075 -21.12701053 45.91545075 -22 49 C-23.6459651 50.68711423 -25.31237149 52.3545622 -27 54 C-27.495 54.99 -27.495 54.99 -28 56 C-28.66 56 -29.32 56 -30 56 C-30.22429687 56.54011719 -30.44859375 57.08023438 -30.6796875 57.63671875 C-32.41757707 60.74743825 -34.71000031 63.2229908 -37.125 65.8125 C-37.62217529 66.3480249 -38.11935059 66.8835498 -38.6315918 67.43530273 C-42.53224001 71.59024527 -46.5648919 75.41514578 -51 79 C-52.00417969 79.83015625 -53.00835937 80.6603125 -54.04296875 81.515625 C-60.36184542 86.66457555 -66.86130163 91.38845647 -73.75 95.75 C-74.44158203 96.19255127 -75.13316406 96.63510254 -75.84570312 97.09106445 C-77.52392712 98.12819512 -79.25808903 99.07381319 -81 100 C-81.66 99.67 -82.32 99.34 -83 99 C-81.1875 97 -81.1875 97 -79 95 C-78.01 95 -77.02 95 -76 95 C-76 94.34 -76 93.68 -76 93 C-74.20963542 92.0234375 -72.41927083 91.046875 -70.62890625 90.0703125 C-68.83381685 89.08589976 -68.83381685 89.08589976 -68 87 C-66.68 87 -65.36 87 -64 87 C-64 86.34 -64 85.68 -64 85 C-62.453125 83.66015625 -62.453125 83.66015625 -60.25 82.0625 C-55.59572802 78.56626399 -51.36847517 74.74610523 -47.16308594 70.73266602 C-45.0993272 68.79109447 -43.25780891 67.12780646 -40.70703125 65.86328125 C-38.63049566 65.06460472 -38.63049566 65.06460472 -38 62 C-36.32630852 59.93539442 -34.62837581 57.93190357 -32.875 55.9375 C-26.19404372 48.18318498 -20.53021305 40.07802222 -15.34375 31.25 C-14.22665239 29.37951097 -13.02902211 27.55740428 -11.8125 25.75 C-6.61433371 17.863127 -3.46531987 8.74245672 0 0 Z " fill="#569D86" transform="translate(474,364)"/>
<path d="M0 0 C0.66 0.33 1.32 0.66 2 1 C1.85890014 3.10448938 1.71195825 5.2085877 1.5625 7.3125 C1.48128906 8.48425781 1.40007812 9.65601563 1.31640625 10.86328125 C1 14 1 14 0 17 C-0.29868439 22.09740957 -0.29552259 27.20710144 -0.3125 32.3125 C-0.31511841 33.05619843 -0.31773682 33.79989685 -0.32043457 34.56613159 C-0.32528418 47.42468943 0.96888761 59.47747301 4 72 C4.3509303 73.53760768 4.70120961 75.07536411 5.05078125 76.61328125 C6.29665979 81.9432046 7.5869481 87.22249098 9.625 92.3125 C11.41639717 97.11670151 12.21059426 101.94780324 13 107 C12.34 107 11.68 107 11 107 C10.03722741 104.64756508 9.07971502 102.29320381 8.125 99.9375 C7.85558594 99.28072266 7.58617188 98.62394531 7.30859375 97.94726562 C4.47541301 90.93341575 2.62692563 83.72011042 0.875 76.375 C0.69324219 75.63765625 0.51148437 74.9003125 0.32421875 74.140625 C-0.57953458 70.34893808 -1.23298342 66.92965368 -1 63 C-1.66 62.67 -2.32 62.34 -3 62 C-4.53354397 52.19110555 -4.09689564 41.89675086 -4.125 32 C-4.12967285 30.84322754 -4.1343457 29.68645508 -4.13916016 28.49462891 C-4.11001995 13.02566366 -4.11001995 13.02566366 -1 7 C-0.61250787 4.67504723 -0.27017161 2.34148732 0 0 Z " fill="#134877" transform="translate(116,268)"/>
<path d="M0 0 C5.06247791 -0.48991722 9.32209408 1.32706468 14 3 C15.26624288 3.42003699 16.53323116 3.83783067 17.80078125 4.25390625 C42.63559936 12.52540696 64.58437368 26.26139317 83.79296875 43.98046875 C85.71482152 45.73904907 87.67647489 47.40819775 89.6875 49.0625 C94.64594806 53.28070582 99.28108149 58.03164229 102 64 C98.95970323 63.6850143 98.03188353 63.03464037 95.921875 60.7421875 C95.20515625 59.79601562 94.4884375 58.84984375 93.75 57.875 C89.8460872 52.94273943 85.85887013 48.95748963 81 45 C80.10539062 44.23042969 79.21078125 43.46085937 78.2890625 42.66796875 C64.66948085 31.03234191 49.67887449 20.73518938 33 14 C31.86949219 13.52820313 30.73898437 13.05640625 29.57421875 12.5703125 C19.66054791 8.47452964 9.65671656 4.59929922 -1 3 C-0.67 2.01 -0.34 1.02 0 0 Z " fill="#92E8D0" transform="translate(343,118)"/>
<path d="M0 0 C2.475 0.495 2.475 0.495 5 1 C5 1.99 5 2.98 5 4 C5.66 4.33 6.32 4.66 7 5 C3.96002856 7.25229747 0.91772171 9.50141974 -2.125 11.75 C-2.9809375 12.38421875 -3.836875 13.0184375 -4.71875 13.671875 C-9.08021749 16.89265099 -13.45210423 20.04759553 -18 23 C-16.6910428 26.12197478 -16.6910428 26.12197478 -14 28 C-6.72937044 28.78220177 -0.93667542 27.65245699 5.78515625 24.875 C8 24 8 24 10 24 C9.765625 26.35546875 9.765625 26.35546875 9 29 C2.51383066 33.83690834 -6.29212351 33.86213266 -14 33 C-18.26469804 31.48205663 -19.49935788 30.75096319 -22 27 C-22.8125 23.8125 -22.8125 23.8125 -22 20 C-18.66252621 16.85143982 -14.83944249 14.49185492 -11 12 C-8.97021091 10.55415777 -6.94890719 9.09630711 -4.9375 7.625 C-3.58978516 6.65433594 -3.58978516 6.65433594 -2.21484375 5.6640625 C0.05039961 4.04332291 0.05039961 4.04332291 2 2 C1.34 1.34 0.68 0.68 0 0 Z " fill="#5183AC" transform="translate(290,228)"/>
<path d="M0 0 C1.9375 1.125 1.9375 1.125 3 3 C3.51171961 6.96442113 3.27365292 8.59060225 1.0234375 11.95703125 C0.14945312 12.89933594 -0.72453125 13.84164063 -1.625 14.8125 C-2.91277344 16.24529297 -2.91277344 16.24529297 -4.2265625 17.70703125 C-7.30935892 20.25576575 -9.03477417 20.88985484 -13 21 C-15.375 19.4375 -15.375 19.4375 -17 17 C-17.55030151 13.03671738 -17.26033367 11.40123862 -15.05859375 8.0078125 C-14.19363281 7.05648438 -13.32867187 6.10515625 -12.4375 5.125 C-11.59058594 4.15820312 -10.74367188 3.19140625 -9.87109375 2.1953125 C-6.30581265 -0.53079359 -4.38805429 -0.52238742 0 0 Z " fill="#EEF5FA" transform="translate(299,324)"/>
<path d="M0 0 C2.625 2.875 2.625 2.875 4.06640625 4.7890625 C6.60830021 7.69555135 9.49403738 9.92276154 12.5625 12.25 C13.39418701 12.88591064 13.39418701 12.88591064 14.24267578 13.53466797 C20.31242421 18.10101706 24.89055898 20.47372412 32.3125 21.6875 C33.05306641 21.81705078 33.79363281 21.94660156 34.55664062 22.08007812 C36.36952334 22.3958706 38.18456851 22.69920583 40 23 C40 23.66 40 24.32 40 25 C37.36 25.66 34.72 26.32 32 27 C32.99 27.99 33.98 28.98 35 30 C33.02 30.99 33.02 30.99 31 32 C30.41734375 31.52691406 29.8346875 31.05382812 29.234375 30.56640625 C23.63693051 26.0514864 17.94989963 21.68332899 12.18359375 17.38671875 C6.74786087 13.3115865 1.37602062 9.15340948 -4 5 C-4.598125 5.309375 -5.19625 5.61875 -5.8125 5.9375 C-8 7 -8 7 -11 8 C-11.33 6.35 -11.66 4.7 -12 3 C-7.91753119 0.03093178 -5.01924867 -0.88056994 0 0 Z " fill="#8ED3C2" transform="translate(311,248)"/>
<path d="M0 0 C2.51250583 3.76875875 2.53016086 5.53150134 2 10 C0.21847933 12.97361628 -1.85307225 15.42653612 -5 17 C-8.4375 17.3125 -8.4375 17.3125 -12 17 C-14.52783106 14.87988363 -14.91928704 13.40356481 -15.5625 10.1875 C-14.76558075 5.67162428 -12.28813713 3.09221186 -9 0 C-5.85135005 -1.57432497 -3.35512575 -0.71895552 0 0 Z " fill="#EDF5FA" transform="translate(251,298)"/>
<path d="M0 0 C6.47630923 -0.36658354 6.47630923 -0.36658354 8.875 1.3125 C11.08032513 4.6204877 11.46418013 8.06742116 11.40625 11.9921875 C11 14 11 14 8.4375 17 C4.56794445 19.25137777 2.39941328 19.43994133 -2 19 C-2.33 20.98 -2.66 22.96 -3 25 C-4.65 25 -6.3 25 -8 25 C-8 18.07 -8 11.14 -8 4 C-7.34 5.32 -6.68 6.64 -6 8 C-5.34 7.67 -4.68 7.34 -4 7 C-3.690625 7.804375 -3.38125 8.60875 -3.0625 9.4375 C-2.23664655 11.89080405 -2.23664655 11.89080405 -1 13 C1.5 13.16666667 1.5 13.16666667 4 13 C5.35618499 11.87465895 5.35618499 11.87465895 5.0625 8.9375 C5.041875 7.968125 5.02125 6.99875 5 6 C3.02 5.34 1.04 4.68 -1 4 C-0.67 2.68 -0.34 1.36 0 0 Z " fill="#79C7B0" transform="translate(309,274)"/>
<path d="M0 0 C1.32 0.66 2.64 1.32 4 2 C2.12295373 11.78272348 0.21160531 21.55909233 -3 31 C-3.70222593 33.30807089 -4.38925214 35.62081059 -5.0625 37.9375 C-5.40410156 39.10152344 -5.74570313 40.26554687 -6.09765625 41.46484375 C-6.99269563 44.97138331 -7.55539221 48.41105256 -8 52 C-7.01 52.33 -6.02 52.66 -5 53 C-5.7425 52.95875 -6.485 52.9175 -7.25 52.875 C-10.11960046 53.00543638 -11.52093306 53.6545235 -14 55 C-12.375 48.5 -12.375 48.5 -11.84375 46.37719727 C-10.73847578 41.95941242 -9.63697138 37.54071518 -8.5390625 33.12109375 C-5.7864321 22.05432426 -2.9976782 11.00324234 0 0 Z " fill="#4173A2" transform="translate(209,237)"/>
<path d="M0 0 C1.5716575 2.26789666 1.50550125 3.68597118 1.38671875 6.41796875 C1.35964844 7.22621094 1.33257812 8.03445313 1.3046875 8.8671875 C1.25248047 9.78951172 1.25248047 9.78951172 1.19921875 10.73046875 C-2.08774358 11.53000013 -3.51101317 11.82705811 -6.80078125 10.73046875 C-8.19517789 10.66381499 -9.59248 10.64508676 -10.98828125 10.66796875 C-12.24640625 10.68859375 -13.50453125 10.70921875 -14.80078125 10.73046875 C-15.13078125 8.42046875 -15.46078125 6.11046875 -15.80078125 3.73046875 C-16.13078125 6.04046875 -16.46078125 8.35046875 -16.80078125 10.73046875 C-17.13078125 10.73046875 -17.46078125 10.73046875 -17.80078125 10.73046875 C-18.13078125 6.77046875 -18.46078125 2.81046875 -18.80078125 -1.26953125 C-3.89225913 -2.74400047 -3.89225913 -2.74400047 0 0 Z " fill="#3B72A3" transform="translate(295.80078125,268.26953125)"/>
<path d="M0 0 C1.8975 -0.061875 3.795 -0.12375 5.75 -0.1875 C7.35101563 -0.23970703 7.35101563 -0.23970703 8.984375 -0.29296875 C12.35541238 0.03452841 13.68796703 0.55034602 16 3 C16.53125 4.9375 16.53125 4.9375 16.5 7 C16.5103125 7.680625 16.520625 8.36125 16.53125 9.0625 C16 11 16 11 14.359375 12.73828125 C11.32045844 14.36339723 9.17612843 14.29922158 5.75 14.1875 C2.90375 14.0946875 2.90375 14.0946875 0 14 C0 9.38 0 4.76 0 0 Z " fill="#14548A" transform="translate(258,377)"/>
<path d="M0 0 C0 38.61 0 77.22 0 117 C-0.33 117 -0.66 117 -1 117 C-1 79.05 -1 41.1 -1 2 C-21.09372451 3.16125769 -21.09372451 3.16125769 -40.27734375 6.4140625 C-43 7 -43 7 -47 7 C-47 6.34 -47 5.68 -47 5 C-28.24801419 1.11377356 -28.24801419 1.11377356 -19.5625 -0.3125 C-18.11037109 -0.55419922 -18.11037109 -0.55419922 -16.62890625 -0.80078125 C-11.08785757 -1.1049723 -5.53304628 -0.42561894 0 0 Z " fill="#4293B3" transform="translate(300,113)"/>
<path d="M0 0 C0.66 0.33 1.32 0.66 2 1 C2.2620276 2.87253867 2.51251428 4.74741651 2.70458984 6.62841797 C3.22998518 10.8463438 4.30286629 14.93853171 5.3125 19.0625 C5.53252686 19.97555908 5.75255371 20.88861816 5.97924805 21.8293457 C7.64085118 28.67169917 9.42434255 35.47538906 11.30078125 42.26171875 C12 45 12 45 12 47 C11.01 47 10.02 47 9 47 C9.33 48.0725 9.66 49.145 10 50.25 C11 54 11 54 11 58 C8.03 58.495 8.03 58.495 5 59 C5.99 58.34 6.98 57.68 8 57 C7.27326972 44.44573447 4.22992933 32.73624098 0.74414062 20.71606445 C0.39287109 19.50265381 0.04160156 18.28924316 -0.3203125 17.0390625 C-0.64273926 15.94803223 -0.96516602 14.85700195 -1.29736328 13.73291016 C-2 11 -2 11 -2 8 C-4.31 8.33 -6.62 8.66 -9 9 C-8.67 8.34 -8.34 7.68 -8 7 C-4.9375 6.375 -4.9375 6.375 -2 6 C-1.34 4.02 -0.68 2.04 0 0 Z " fill="#91D8C3" transform="translate(390,230)"/>
<path d="M0 0 C3.9791034 -0.05868218 7.95809353 -0.0938239 11.9375 -0.125 C13.05447266 -0.14175781 14.17144531 -0.15851563 15.32226562 -0.17578125 C26.09134365 -0.238943 33.66429521 0.6509059 42.08203125 7.7578125 C44.43805501 10.51210504 44.83205938 12.43973363 45.375 16 C45.54773438 17.03125 45.72046875 18.0625 45.8984375 19.125 C46.00479933 22.13585797 45.60047586 23.49700016 44 26 C43.98582031 25.29875 43.97164063 24.5975 43.95703125 23.875 C43.61868273 17.1446078 42.64824755 12.07194839 38 7 C32.47871572 3.43417057 27.05843991 2.89767336 20.60546875 2.68359375 C19.52160889 2.64548584 18.43774902 2.60737793 17.32104492 2.56811523 C15.9569751 2.52501221 14.59290527 2.48190918 13.1875 2.4375 C8.835625 2.293125 4.48375 2.14875 0 2 C0 18.17 0 34.34 0 51 C-2.41787996 48.58212004 -2.25207276 48.01019812 -2.25878906 44.70556641 C-2.26509338 43.8176944 -2.27139771 42.92982239 -2.27789307 42.01504517 C-2.2738446 41.05359589 -2.26979614 40.09214661 -2.265625 39.1015625 C-2.26753845 38.11505707 -2.2694519 37.12855164 -2.27142334 36.1121521 C-2.2727861 34.02235662 -2.26908334 31.93255271 -2.26074219 29.84277344 C-2.25006673 26.64498811 -2.26062277 23.4477675 -2.2734375 20.25 C-2.27211548 18.22135293 -2.26955219 16.1927062 -2.265625 14.1640625 C-2.26967346 13.20666168 -2.27372192 12.24926086 -2.27789307 11.2628479 C-2.27158875 10.36867157 -2.26528442 9.47449524 -2.25878906 8.55322266 C-2.25719788 7.76871735 -2.25560669 6.98421204 -2.25396729 6.17593384 C-1.97038162 3.74623648 -1.20971342 2.1092872 0 0 Z " fill="#1B5182" transform="translate(244,364)"/>
<path d="M0 0 C0.33 0 0.66 0 1 0 C1 21.78 1 43.56 1 66 C12.88 65.01 12.88 65.01 25 64 C27.31 64 29.62 64 32 64 C32 64.33 32 64.66 32 65 C23.4948911 66.21165452 15.10013258 67.23369581 6.51171875 67.65625 C3.83171737 67.76515167 3.83171737 67.76515167 2 70 C9.99866727 70.21298226 17.48979842 69.94052694 25.35546875 68.4453125 C28.6440895 67.8915418 31.67623315 67.84891969 35 68 C34.67 68.66 34.34 69.32 34 70 C23.74950292 72.94245038 11.62554443 73.75737633 1 73 C0 72 0 72 -0.12025452 69.14634705 C-0.11803391 67.86949539 -0.11581329 66.59264374 -0.11352539 65.27709961 C-0.11367142 64.5746965 -0.11381744 63.8722934 -0.1139679 63.14860535 C-0.11326872 60.81648722 -0.10547617 58.484448 -0.09765625 56.15234375 C-0.09579208 54.53951562 -0.09436818 52.92668693 -0.09336853 51.31385803 C-0.08954323 47.06084643 -0.07971285 42.80786876 -0.06866455 38.55487061 C-0.05845069 34.2182257 -0.05387096 29.88157533 -0.04882812 25.54492188 C-0.03809059 17.02993231 -0.02101403 8.51497037 0 0 Z " fill="#52A094" transform="translate(300,415)"/>
<path d="M0 0 C0.33 0 0.66 0 1 0 C1 2.31 1 4.62 1 7 C4.67840889 4.72692336 4.67840889 4.72692336 8 2 C9.51928038 1.92820036 11.04167482 1.91607993 12.5625 1.9375 C13.38878906 1.94652344 14.21507812 1.95554687 15.06640625 1.96484375 C15.70449219 1.97644531 16.34257812 1.98804688 17 2 C17 2.33 17 2.66 17 3 C15.35 3 13.7 3 12 3 C12 3.99 12 4.98 12 6 C12.804375 6.309375 13.60875 6.61875 14.4375 6.9375 C17 8 17 8 18 9 C18.1875 11.9375 18.1875 11.9375 18 15 C16 17 16 17 13.5625 17.3125 C11 17 11 17 9.25 15.6875 C8 14 8 14 7 11 C6.01 11.495 6.01 11.495 5 12 C4.68758545 14.71446979 4.48663408 17.33909361 4.375 20.0625 C4.33632813 20.82111328 4.29765625 21.57972656 4.2578125 22.36132812 C4.16326438 24.24047195 4.08053244 26.12020336 4 28 C3.67 28 3.34 28 3 28 C2.67 21.73 2.34 15.46 2 9 C0.35 9.66 -1.3 10.32 -3 11 C-2.34 10.01 -1.68 9.02 -1 8 C-0.54860541 5.9507906 -0.54860541 5.9507906 -0.375 3.8125 C-0.25125 2.554375 -0.1275 1.29625 0 0 Z " fill="#9BD9CD" transform="translate(297,271)"/>
<path d="M0 0 C0.495 0.99 0.495 0.99 1 2 C0.38125 2.69222656 0.38125 2.69222656 -0.25 3.3984375 C-17.14338314 22.47891042 -30.12247781 43.08291079 -39 67 C-39.33 67 -39.66 67 -40 67 C-39.52598549 60.43903731 -37.72983743 55.42226316 -34.9375 49.5 C-34.56044922 48.67757812 -34.18339844 47.85515625 -33.79492188 47.0078125 C-32.8729514 45.00048438 -31.94127457 42.99832944 -31 41 C-30.34 41 -29.68 41 -29 41 C-28.7525 40.154375 -28.505 39.30875 -28.25 38.4375 C-26.02176428 32.30985177 -22.65028949 27.367338 -18.70703125 22.24609375 C-16.72686949 19.64061775 -14.83688326 16.97735975 -12.9375 14.3125 C-10.17649346 10.50494051 -7.46043318 7.17206375 -4 4 C-3.236875 3.236875 -2.47375 2.47375 -1.6875 1.6875 C-1.130625 1.130625 -0.57375 0.57375 0 0 Z " fill="#3E79A9" transform="translate(164,170)"/>
<path d="M0 0 C1.32 0 2.64 0 4 0 C4 22.11 4 44.22 4 67 C3.34 66.67 2.68 66.34 2 66 C1.82951815 59.31482991 1.67009339 52.62945707 1.51782227 45.94384766 C1.46494084 43.67653641 1.40966498 41.40927954 1.35180664 39.14208984 C1.0274352 26.36467589 0.85418057 13.74141652 2 1 C1.34 0.67 0.68 0.34 0 0 Z " fill="#10557C" transform="translate(296,415)"/>
<path d="M0 0 C0.66 0 1.32 0 2 0 C2 12.21 2 24.42 2 37 C5.3 37 8.6 37 12 37 C12 24.79 12 12.58 12 0 C12.33 0 12.66 0 13 0 C13 12.87 13 25.74 13 39 C8.71 39 4.42 39 0 39 C0 26.13 0 13.26 0 0 Z " fill="#DEF9F1" transform="translate(377,376)"/>
<path d="M0 0 C0 0.99 0 1.98 0 3 C-0.33 3.33 -0.66 3.66 -1 4 C-1.15825258 5.99782126 -1.25119171 8.00088834 -1.31640625 10.00390625 C-1.35830078 11.21884766 -1.40019531 12.43378906 -1.44335938 13.68554688 C-1.50233398 15.60463867 -1.50233398 15.60463867 -1.5625 17.5625 C-1.60568359 18.84576172 -1.64886719 20.12902344 -1.69335938 21.45117188 C-1.799848 24.63399853 -1.90185962 27.81690674 -2 31 C-3.32 31 -4.64 31 -6 31 C-6 47.17 -6 63.34 -6 80 C-6.33 80 -6.66 80 -7 80 C-8.40027356 44.11044893 -8.40027356 44.11044893 -7 30 C-6.34 29.67 -5.68 29.34 -5 29 C-4.97099545 25.3958502 -4.95319982 21.79173038 -4.9375 18.1875 C-4.92912109 17.16333984 -4.92074219 16.13917969 -4.91210938 15.08398438 C-4.90727539 13.60961914 -4.90727539 13.60961914 -4.90234375 12.10546875 C-4.89448853 10.74651489 -4.89448853 10.74651489 -4.88647461 9.36010742 C-4.90079019 6.84715961 -4.90079019 6.84715961 -6 4 C-3.94766315 1.7522025 -2.99332739 0.9977758 0 0 Z " fill="#0D4A7C" transform="translate(302,335)"/>
<path d="M0 0 C0.66 0.33 1.32 0.66 2 1 C2.19557788 13.65388883 2.31319191 26.26370689 1.125 38.875 C1.04652832 39.74084717 0.96805664 40.60669434 0.88720703 41.4987793 C0.46919007 45.49320819 -0.04181781 48.44102628 -2 52 C-2.33 52 -2.66 52 -3 52 C-3.02736707 50.60427948 -3.04655989 49.20839779 -3.0625 47.8125 C-3.07410156 47.03519531 -3.08570313 46.25789063 -3.09765625 45.45703125 C-3 43 -3 43 -2.51147461 40.86474609 C-1.84803996 37.14887872 -1.78637783 33.4700335 -1.71875 29.70703125 C-1.70034058 28.91979172 -1.68193115 28.13255219 -1.66296387 27.32145691 C-1.58456288 23.96679753 -1.51634497 20.61195229 -1.44775391 17.25708008 C-1.39609471 14.80279436 -1.33884982 12.34868357 -1.28125 9.89453125 C-1.26767456 9.13308304 -1.25409912 8.37163483 -1.2401123 7.58711243 C-1.11288178 2.22576355 -1.11288178 2.22576355 0 0 Z " fill="#69BDA5" transform="translate(486,281)"/>
<path d="M0 0 C4.29 0 8.58 0 13 0 C12.01 0.33 11.02 0.66 10 1 C10 1.66 10 2.32 10 3 C10.99 3.33 11.98 3.66 13 4 C13 4.33 13 4.66 13 5 C8.71 5 4.42 5 0 5 C0 13.25 0 21.5 0 30 C1.65 30 3.3 30 5 30 C5 27.69 5 25.38 5 23 C5.33 23 5.66 23 6 23 C6 25.64 6 28.28 6 31 C3.69 31 1.38 31 -1 31 C-3.2745098 6.54901961 -3.2745098 6.54901961 0 0 Z " fill="#BAD3E4" transform="translate(276,261)"/>
<path d="M0 0 C0.66 0 1.32 0 2 0 C1.43747005 4.31127092 0.39858792 7.75189955 -1.4765625 11.66796875 C-1.98316406 12.72693359 -2.48976563 13.78589844 -3.01171875 14.87695312 C-3.54410156 15.96943359 -4.07648438 17.06191406 -4.625 18.1875 C-5.13417969 19.26064453 -5.64335937 20.33378906 -6.16796875 21.43945312 C-9.64084179 28.63326156 -13.56205908 35.35966665 -18 42 C-18.66 41.67 -19.32 41.34 -20 41 C-18.54221575 37.04211576 -16.65959473 33.55665134 -14.5 29.9375 C-12.55185125 26.66444501 -10.69965366 23.40616077 -9 20 C-8.51789063 19.23042969 -8.03578125 18.46085937 -7.5390625 17.66796875 C-5.79081198 14.63737203 -4.59352977 11.59056936 -3.375 8.3125 C-1.06278027 2.12556054 -1.06278027 2.12556054 0 0 Z " fill="#58A68F" transform="translate(474,364)"/>
<path d="M0 0 C0.33 0 0.66 0 1 0 C1.06058594 0.62648438 1.12117188 1.25296875 1.18359375 1.8984375 C1.26738281 2.71570313 1.35117187 3.53296875 1.4375 4.375 C1.51871094 5.18710937 1.59992188 5.99921875 1.68359375 6.8359375 C1.89090114 9.04272805 1.89090114 9.04272805 3 11 C2.90860211 12.40045153 2.75118643 13.79681115 2.5625 15.1875 C1.7687555 22.11750006 1.91643557 29.0362974 2 36 C3.08539063 35.98839844 4.17078125 35.97679687 5.2890625 35.96484375 C6.73437327 35.95545862 8.17968591 35.94635919 9.625 35.9375 C10.33785156 35.92912109 11.05070312 35.92074219 11.78515625 35.91210938 C15.97344438 35.89289704 19.8728462 36.1732673 24 37 C24 37.33 24 37.66 24 38 C16.08 38 8.16 38 0 38 C0 25.46 0 12.92 0 0 Z " fill="#74BDA5" transform="translate(310,366)"/>
<path d="M0 0 C0 1.98 0 3.96 0 6 C-0.495 4.02 -0.495 4.02 -1 2 C-20.78725943 3.08235185 -20.78725943 3.08235185 -40.27734375 6.4140625 C-43 7 -43 7 -47 7 C-47 6.34 -47 5.68 -47 5 C-14.35770975 -1.7649012 -14.35770975 -1.7649012 0 0 Z " fill="#5090C3" transform="translate(300,113)"/>
<path d="M0 0 C0.33 0 0.66 0 1 0 C0.41036215 5.50328657 -0.57974499 10.65860615 -2 16 C-2.35495466 17.47897777 -2.70914131 18.95814011 -3.0625 20.4375 C-4 24 -4 24 -5 25 C-5.397493 27.34723966 -5.74368723 29.70328548 -6.0625 32.0625 C-6.32740234 33.99802734 -6.32740234 33.99802734 -6.59765625 35.97265625 C-6.73042969 36.97167969 -6.86320312 37.97070312 -7 39 C-9.8446054 34.7330919 -9.38512706 31.30593179 -8.57177734 26.43603516 C-7.99246473 23.54856329 -7.3510926 20.68172989 -6.6875 17.8125 C-6.47416016 16.82830078 -6.26082031 15.84410156 -6.04101562 14.83007812 C-5.82509766 13.88197266 -5.60917969 12.93386719 -5.38671875 11.95703125 C-5.19295654 11.10085205 -4.99919434 10.24467285 -4.79956055 9.36254883 C-3.92291081 6.77221616 -2.67943077 5.13672491 -1 3 C-0.67 2.01 -0.34 1.02 0 0 Z " fill="#205B8B" transform="translate(122,243)"/>
<path d="M0 0 C0.66 0.33 1.32 0.66 2 1 C1.88556397 3.0839403 1.75804453 5.16716493 1.625 7.25 C1.55539063 8.41015625 1.48578125 9.5703125 1.4140625 10.765625 C1 14 1 14 0 15.76757812 C-1.38690659 18.86373873 -1.32802857 21.56912387 -1.4140625 24.953125 C-1.43342865 25.61334656 -1.4527948 26.27356812 -1.4727478 26.95379639 C-1.53229349 29.05240153 -1.57882722 31.15106228 -1.625 33.25 C-1.66320294 34.6771066 -1.70225602 36.10419072 -1.7421875 37.53125 C-1.8379733 41.02062691 -1.92209642 44.51017286 -2 48 C-4 46 -4 46 -4.24291992 43.42138672 C-4.23881104 42.35162598 -4.23470215 41.28186523 -4.23046875 40.1796875 C-4.22853516 39.0040625 -4.22660156 37.8284375 -4.22460938 36.6171875 C-4.21236328 35.38226563 -4.20011719 34.14734375 -4.1875 32.875 C-4.18685547 31.66328125 -4.18621094 30.4515625 -4.18554688 29.203125 C-4.1062094 13.01828072 -4.1062094 13.01828072 -1 7 C-0.61250787 4.67504723 -0.27017161 2.34148732 0 0 Z " fill="#195180" transform="translate(116,268)"/>
<path d="M0 0 C-2.70935263 3.0480217 -4.96154724 5.12712989 -8.6875 6.8125 C-18.79241913 11.57220023 -26.91141317 20.43953396 -35 28 C-35 25 -35 25 -33.09375 22.73046875 C-28.44445825 18.17220229 -23.85752482 13.86718016 -18.49609375 10.15625 C-16.84605603 9.05397227 -16.84605603 9.05397227 -16 7 C-11.5 4 -11.5 4 -9 4 C-9 3.34 -9 2.68 -9 2 C-5.86501708 0.14223235 -3.62528568 -0.20140476 0 0 Z " fill="#4381B4" transform="translate(201,143)"/>
<path d="M0 0 C3.0625 0.1875 3.0625 0.1875 5.0625 2.1875 C5.3125 5.1875 5.3125 5.1875 5.0625 8.1875 C3.0625 10.1875 3.0625 10.1875 0.5625 10.4375 C-1.9375 10.1875 -1.9375 10.1875 -3.9375 8.1875 C-4.125 4.625 -4.125 4.625 -3.9375 1.1875 C-2.9375 0.1875 -2.9375 0.1875 0 0 Z " fill="#D5F7EE" transform="translate(309.9375,277.8125)"/>
<path d="M0 0 C0.66 0.33 1.32 0.66 2 1 C2 7.27 2 13.54 2 20 C1.67 20 1.34 20 1 20 C0.67 18.02 0.34 16.04 0 14 C-1.98 14 -3.96 14 -6 14 C-6 13.67 -6 13.34 -6 13 C-4.35 13 -2.7 13 -1 13 C-1.3609375 12.44570313 -1.721875 11.89140625 -2.09375 11.3203125 C-2.5578125 10.59585937 -3.021875 9.87140625 -3.5 9.125 C-3.9640625 8.40570313 -4.428125 7.68640625 -4.90625 6.9453125 C-6 5 -6 5 -6 3 C-5.195625 2.690625 -4.39125 2.38125 -3.5625 2.0625 C-1.10919595 1.23664655 -1.10919595 1.23664655 0 0 Z " fill="#E9F7FA" transform="translate(298,279)"/>
<path d="M0 0 C3.90238797 0.44446332 6.47396926 2.58066288 9.5625 4.875 C10.98755859 5.92300781 10.98755859 5.92300781 12.44140625 6.9921875 C14.45857491 8.57512596 16.25492588 10.1315368 18 12 C16.02 12.99 16.02 12.99 14 14 C11.87057725 12.40143334 9.74649666 10.79652542 7.625 9.1875 C7.02171875 8.73568359 6.4184375 8.28386719 5.796875 7.81835938 C2.99768823 5.68786722 0.9679069 3.95186035 -1 1 C-0.67 0.67 -0.34 0.34 0 0 Z " fill="#85CBB9" transform="translate(344,278)"/>
<path d="M0 0 C6.0546875 -0.1953125 6.0546875 -0.1953125 8 0 C8.66 0.66 9.32 1.32 10 2 C9.44444444 6.55555556 9.44444444 6.55555556 8 8 C5.32941149 8.14115161 2.67567762 8.04247107 0 8 C0 5.36 0 2.72 0 0 Z " fill="#C8E3F3" transform="translate(281,271)"/>
<path d="M0 0 C0.66 0.33 1.32 0.66 2 1 C1.43206316 7.38769415 0.32181945 13.27731731 -1.4375 19.4375 C-1.65470703 20.23865234 -1.87191406 21.03980469 -2.09570312 21.86523438 C-3.74528871 27.74528871 -3.74528871 27.74528871 -6 30 C-7.41332283 25.53365244 -6.07811672 22.12984163 -4.6875 17.8125 C-4.21653049 16.2897472 -3.74775889 14.76631277 -3.28125 13.2421875 C-3.05695313 12.51225586 -2.83265625 11.78232422 -2.6015625 11.03027344 C-1.52351596 7.39186636 -0.74372962 3.71864812 0 0 Z " fill="#5DB098" transform="translate(482,334)"/>
<path d="M0 0 C1.32 0.66 2.64 1.32 4 2 C2.52033871 9.71164651 0.79704634 17.35656288 -1 25 C-1.33 25 -1.66 25 -2 25 C-2 23.02 -2 21.04 -2 19 C-2.66 18.67 -3.32 18.34 -4 18 C-2.83445193 11.9490696 -1.54656904 5.96533774 0 0 Z " fill="#4D7DA9" transform="translate(209,237)"/>
<path d="M0 0 C6.47630923 -0.36658354 6.47630923 -0.36658354 8.875 1.3125 C11.59070079 5.38605118 11.07690176 9.30899258 11 14 C10.67 14 10.34 14 10 14 C10 12.35 10 10.7 10 9 C8.68 9.33 7.36 9.66 6 10 C5.773125 9.195625 5.54625 8.39125 5.3125 7.5625 C4.879375 6.716875 4.44625 5.87125 4 5 C1.45224694 4.10613836 1.45224694 4.10613836 -1 4 C-0.67 2.68 -0.34 1.36 0 0 Z " fill="#86CFBB" transform="translate(309,274)"/>
<path d="M0 0 C-0.0625 2.3125 -0.0625 2.3125 -1 5 C-7.43180072 9.44100526 -15.50981357 8.26027675 -23 8 C-22.67 7.34 -22.34 6.68 -22 6 C-21.32453125 6.03480469 -20.6490625 6.06960938 -19.953125 6.10546875 C-19.06109375 6.13253906 -18.1690625 6.15960938 -17.25 6.1875 C-15.92742187 6.23970703 -15.92742187 6.23970703 -14.578125 6.29296875 C-11.5036244 5.94359368 -10.32248336 4.98237074 -8 3 C-2.44444444 0 -2.44444444 0 0 0 Z " fill="#3974A3" transform="translate(300,252)"/>
<path d="M0 0 C0.66 1.32 1.32 2.64 2 4 C-0.31 6.97 -2.62 9.94 -5 13 C-6.32 12.67 -7.64 12.34 -9 12 C-8.01 8.7 -7.02 5.4 -6 2 C-5.67 2.66 -5.34 3.32 -5 4 C-3.35 2.68 -1.7 1.36 0 0 Z " fill="#1C588C" transform="translate(261,298)"/>
<path d="M0 0 C0.66 0.33 1.32 0.66 2 1 C-1.31598091 5.00681027 -4.9173325 7.12517387 -10 8 C-12.88578896 8.11152455 -15.74170618 8.02139921 -18.625 7.875 C-19.35356201 7.84124268 -20.08212402 7.80748535 -20.83276367 7.77270508 C-25.50991609 7.43341045 -28.87777338 6.40571585 -33 4 C-29.6872733 2.89575777 -28.6715846 3.13690088 -25.375 3.9375 C-16.10063431 5.88646091 -9.5865379 5.24215861 -1 1 C-0.67 0.67 -0.34 0.34 0 0 Z " fill="#305D89" transform="translate(231,410)"/>
<path d="M0 0 C0.33 0 0.66 0 1 0 C1.99 4.95 2.98 9.9 4 15 C3.01 15 2.02 15 1 15 C1.33 16.0725 1.66 17.145 2 18.25 C3 22 3 22 3 26 C1.02 26.33 -0.96 26.66 -3 27 C-2.01 26.34 -1.02 25.68 0 25 C-0.66 18.73 -1.32 12.46 -2 6 C-1.34 6 -0.68 6 0 6 C0 4.02 0 2.04 0 0 Z " fill="#9FDCCA" transform="translate(398,262)"/>
<path d="M0 0 C0 0.66 0 1.32 0 2 C-21.67741935 9.39516129 -21.67741935 9.39516129 -28 9 C-27 7 -27 7 -25.31347656 6.34570312 C-24.23791504 6.06629883 -24.23791504 6.06629883 -23.140625 5.78125 C-22.35429687 5.57113281 -21.56796875 5.36101562 -20.7578125 5.14453125 C-19.93023437 4.93183594 -19.10265625 4.71914063 -18.25 4.5 C-12.12478544 2.93775715 -12.12478544 2.93775715 -6.171875 0.84375 C-4 0 -4 0 0 0 Z " fill="#51967F" transform="translate(364,475)"/>
<path d="M0 0 C0.66 0.66 1.32 1.32 2 2 C0.54462432 2.83848804 -0.91440373 3.67063934 -2.375 4.5 C-3.18710937 4.9640625 -3.99921875 5.428125 -4.8359375 5.90625 C-7 7 -7 7 -9 7 C-9.33 7.66 -9.66 8.32 -10 9 C-12.43359375 10.0703125 -12.43359375 10.0703125 -15.4375 11.125 C-16.42621094 11.47820312 -17.41492188 11.83140625 -18.43359375 12.1953125 C-21 13 -21 13 -23 13 C-22 10 -22 10 -18.9453125 8.39453125 C-17.67659719 7.85592569 -16.40287203 7.32900516 -15.125 6.8125 C-14.48691406 6.53986328 -13.84882813 6.26722656 -13.19140625 5.98632812 C-10.30284243 4.7832624 -8.1584173 4 -5 4 C-5 3.34 -5 2.68 -5 2 C-3.35 1.34 -1.7 0.68 0 0 Z " fill="#529881" transform="translate(388,463)"/>
<path d="M0 0 C4.875 3.75 4.875 3.75 6 6 C6.45112782 11.30075188 6.45112782 11.30075188 4.75 13.9375 C3 15 3 15 0.8125 14.6875 C0.214375 14.460625 -0.38375 14.23375 -1 14 C-0.34 13.34 0.32 12.68 1 12 C1.35290099 7.94163865 0.89856415 5.54398641 -1 2 C-0.67 1.34 -0.34 0.68 0 0 Z " fill="#3F7B9B" transform="translate(300,321)"/>
<path d="M0 0 C0 0.99 0 1.98 0 3 C2.64 3 5.28 3 8 3 C8.33 3.66 8.66 4.32 9 5 C7.5437455 5.67119549 6.08492133 6.33681807 4.625 7 C3.40683594 7.556875 3.40683594 7.556875 2.1640625 8.125 C0 9 0 9 -2 9 C-2 8.34 -2 7.68 -2 7 C-2.66 7 -3.32 7 -4 7 C-4 5.02 -4 3.04 -4 1 C-2 0 -2 0 0 0 Z " fill="#215A8E" transform="translate(280,302)"/>
<path d="M0 0 C0.33 0 0.66 0 1 0 C1.33 1.98 1.66 3.96 2 6 C-1.39576062 6.05830787 -4.7913915 6.09369946 -8.1875 6.125 C-9.14720703 6.14175781 -10.10691406 6.15851563 -11.09570312 6.17578125 C-12.02705078 6.18222656 -12.95839844 6.18867188 -13.91796875 6.1953125 C-14.77156982 6.20578613 -15.6251709 6.21625977 -16.50463867 6.22705078 C-19.30726815 5.97204194 -21.44729419 5.15541422 -24 4 C-24 3.67 -24 3.34 -24 3 C-15.94641862 2.85474503 -8.02124152 3.28586721 0 4 C0 2.68 0 1.36 0 0 Z " fill="#134063" transform="translate(299,482)"/>
<path d="M0 0 C0.66 0.33 1.32 0.66 2 1 C-4.93 7.93 -11.86 14.86 -19 22 C-19 16.47895725 -13.70146878 12.77192133 -10 9 C-6.73001072 5.92449141 -3.39615538 2.93529923 0 0 Z " fill="#276EA7" transform="translate(181,156)"/>
<path d="M0 0 C1.65 0.33 3.3 0.66 5 1 C5 1.99 5 2.98 5 4 C5.66 4.33 6.32 4.66 7 5 C2.545 8.465 2.545 8.465 -2 12 C-2.99 10.68 -3.98 9.36 -5 8 C-2.69 6.02 -0.38 4.04 2 2 C1.34 1.34 0.68 0.68 0 0 Z " fill="#598AB1" transform="translate(290,228)"/>
<path d="M0 0 C3.96 0 7.92 0 12 0 C12.33 0.66 12.66 1.32 13 2 C10.04335481 3.4783226 7.25770263 3.06032783 4 3 C3.34 5.97 2.68 8.94 2 12 C1.67 12 1.34 12 1 12 C0.67 8.04 0.34 4.08 0 0 Z " fill="#3270A9" transform="translate(277,267)"/>
<path d="M0 0 C-0.33 0.66 -0.66 1.32 -1 2 C-8.78398388 4.40649883 -16.94275216 4.23057307 -25 4 C-21.43240937 1.62160624 -18.98688387 1.40672049 -14.75 0.875 C-13.46609375 0.70742188 -12.1821875 0.53984375 -10.859375 0.3671875 C-7.21030004 0.0200083 -3.66261231 -0.06642043 0 0 Z " fill="#4F937E" transform="translate(335,483)"/>
<path d="M0 0 C2.64 0.33 5.28 0.66 8 1 C6.68 1.33 5.36 1.66 4 2 C4.78375 2.78375 5.5675 3.5675 6.375 4.375 C8.6875 6.6875 8.6875 6.6875 11 9 C8.69 8.67 6.38 8.34 4 8 C3.87625 8.7425 3.7525 9.485 3.625 10.25 C3.04513299 12.80141485 2.26291261 14.7267573 1 17 C0.34 17 -0.32 17 -1 17 C-0.38722388 14.03824877 0.25372522 12.61941217 2 10 C2.33706208 6.03952054 2.09429461 3.40322874 0 0 Z " fill="#DDF5F6" transform="translate(303,323)"/>
<path d="M0 0 C5.70629354 0.42797202 9.41078616 2.84345952 14 6 C13.01 6.99 12.02 7.98 11 9 C9.34793553 8.07352464 7.7035003 7.13343426 6.0625 6.1875 C5.14597656 5.66542969 4.22945313 5.14335937 3.28515625 4.60546875 C1 3 1 3 0 0 Z " fill="#7AC2B0" transform="translate(307,325)"/>
<path d="M0 0 C5.28 0 10.56 0 16 0 C10.53614128 2.73192936 8.0162307 3.23059264 2 2 C2.04125 3.0725 2.0825 4.145 2.125 5.25 C2 9 2 9 0 13 C0 8.71 0 4.42 0 0 Z " fill="#1C5284" transform="translate(258,402)"/>
<path d="M0 0 C9.69527822 -0.19219715 19.32867432 0.40418676 29 1 C22.36117775 5.20347539 11.43077906 3.47576405 4.0625 2 C2.70463646 1.68206122 1.34854812 1.35538209 0 1 C0 0.67 0 0.34 0 0 Z " fill="#5081AC" transform="translate(216,239)"/>
<path d="M0 0 C0.66 0.66 1.32 1.32 2 2 C1.52949219 2.9178125 1.05898437 3.835625 0.57421875 4.78125 C-2.63449212 11.08870789 -5.71704143 17.28541597 -8 24 C-8.33 24 -8.66 24 -9 24 C-8.54795511 17.6283196 -6.93966344 13.09989036 -3.9375 7.5 C-3.37192383 6.40945312 -3.37192383 6.40945312 -2.79492188 5.296875 C-1.87427046 3.52549507 -0.93867864 1.76189339 0 0 Z " fill="#3773A1" transform="translate(133,213)"/>
<path d="M0 0 C3.33523252 1.38009621 5.18607951 2.84950652 7 6 C6.67 6.99 6.34 7.98 6 9 C5.34 9 4.68 9 4 9 C3.67 9.99 3.34 10.98 3 12 C2.79375 11.05125 2.5875 10.1025 2.375 9.125 C1.29166667 5.70833333 1.29166667 5.70833333 -2.125 4.625 C-3.07375 4.41875 -4.0225 4.2125 -5 4 C-4.360625 3.71125 -3.72125 3.4225 -3.0625 3.125 C-0.84793921 2.17176549 -0.84793921 2.17176549 0 0 Z " fill="#3A6F9F" transform="translate(288,305)"/>
<path d="M0 0 C1.65 0.33 3.3 0.66 5 1 C5.33 3.31 5.66 5.62 6 8 C5.01 8.495 5.01 8.495 4 9 C3.34 8.34 2.68 7.68 2 7 C-0.42715206 6.32059533 -0.42715206 6.32059533 -3.125 5.875 C-4.49011719 5.62363281 -4.49011719 5.62363281 -5.8828125 5.3671875 C-6.58148438 5.24601562 -7.28015625 5.12484375 -8 5 C-8 4.67 -8 4.34 -8 4 C-4.535 3.505 -4.535 3.505 -1 3 C-0.67 2.01 -0.34 1.02 0 0 Z " fill="#467DAE" transform="translate(289,266)"/>
<path d="M0 0 C0.66666667 1.33333333 1.33333333 2.66666667 2 4 C2.37125 4.5775 2.7425 5.155 3.125 5.75 C4.46160487 9.18698395 4.12238184 12.32854467 4 16 C3.01 15.67 2.02 15.34 1 15 C-1.03378419 10.07118628 -1.32088682 5.15145861 0 0 Z " fill="#83D2BA" transform="translate(394,252)"/>
<path d="M0 0 C0.33 0 0.66 0 1 0 C1.22886808 7.40006785 1.41158296 14.89922796 -1 22 C-1.66 22.33 -2.32 22.66 -3 23 C-3.18451025 13.58997722 -3.18451025 13.58997722 -2 9 C-1.34 9 -0.68 9 0 9 C0 6.03 0 3.06 0 0 Z " fill="#5EB49C" transform="translate(486,310)"/>
<path d="M0 0 C4.51478398 0.53115106 7.34666857 2.36620292 11 5 C10.34 6.32 9.68 7.64 9 9 C7.491987 8.07544441 5.99375083 7.1349253 4.5 6.1875 C3.6646875 5.66542969 2.829375 5.14335937 1.96875 4.60546875 C0.99421875 3.81076172 0.99421875 3.81076172 0 3 C0 2.01 0 1.02 0 0 Z " fill="#87C7B7" transform="translate(321,311)"/>
<path d="M0 0 C4.10958767 1.45044271 7.43258745 3.51110752 11 6 C10.01 6.99 9.02 7.98 8 9 C5.03 7.02 2.06 5.04 -1 3 C-0.67 2.01 -0.34 1.02 0 0 Z " fill="#7DC1B1" transform="translate(334,296)"/>
<path d="M0 0 C1.14240002 3.42720007 0.83197206 5.11054083 0.1875 8.625 C0.01605469 9.60726563 -0.15539062 10.58953125 -0.33203125 11.6015625 C-0.55246094 12.39304687 -0.77289063 13.18453125 -1 14 C-1.99 14.495 -1.99 14.495 -3 15 C-3.19627391 13.41773035 -3.38165538 11.83410729 -3.5625 10.25 C-3.66691406 9.36828125 -3.77132812 8.4865625 -3.87890625 7.578125 C-3.99684108 5.06725449 -3.95716642 3.32230542 -3 1 C-2.01 0.67 -1.02 0.34 0 0 Z " fill="#396D9D" transform="translate(207,254)"/>
<path d="M0 0 C0 0.99 0 1.98 0 3 C-0.33 3.33 -0.66 3.66 -1 4 C-1.15825258 5.99782126 -1.25119171 8.00088834 -1.31640625 10.00390625 C-1.35830078 11.21884766 -1.40019531 12.43378906 -1.44335938 13.68554688 C-1.50233398 15.60463867 -1.50233398 15.60463867 -1.5625 17.5625 C-1.60568359 18.84576172 -1.64886719 20.12902344 -1.69335938 21.45117188 C-1.799848 24.63399853 -1.90185962 27.81690674 -2 31 C-2.33 31 -2.66 31 -3 31 C-3.33 22.42 -3.66 13.84 -4 5 C-4.66 4.67 -5.32 4.34 -6 4 C-3.94766315 1.7522025 -2.99332739 0.9977758 0 0 Z " fill="#1D6487" transform="translate(302,335)"/>
<path d="M0 0 C14.46428571 -0.26785714 14.46428571 -0.26785714 18 2 C17.67 2.99 17.34 3.98 17 5 C16.46890625 4.51917969 15.9378125 4.03835938 15.390625 3.54296875 C11.05463413 0.74441255 6.05308693 1.27462429 1 1 C1 5.95 1 10.9 1 16 C0.67 16 0.34 16 0 16 C0 10.72 0 5.44 0 0 Z " fill="#E6F5FB" transform="translate(256,375)"/>
<path d="M0 0 C2.49770493 1.1893833 4.48680657 2.50776832 6.625 4.25 C6.295 5.24 5.965 6.23 5.625 7.25 C1.19041027 5.8562718 -1.24878374 3.64417765 -4.375 0.25 C-2.375 -0.75 -2.375 -0.75 0 0 Z " fill="#79C3AE" transform="translate(346.375,303.75)"/>
<path d="M0 0 C-6.94531589 4.6302106 -14.73716478 6.22363643 -23 5 C-24.828125 3.48046875 -24.828125 3.48046875 -26 2 C-24.76636719 2.17789063 -24.76636719 2.17789063 -23.5078125 2.359375 C-16.37458063 3.18307383 -11.48063673 3.07327835 -5.0234375 -0.1875 C-3 -1 -3 -1 0 0 Z " fill="#DBF1FA" transform="translate(299,252)"/>
<path d="M0 0 C1.17046875 0.10183594 2.3409375 0.20367187 3.546875 0.30859375 C4.43890625 0.39238281 5.3309375 0.47617188 6.25 0.5625 C6.25 2.5425 6.25 4.5225 6.25 6.5625 C5.92 5.2425 5.59 3.9225 5.25 2.5625 C-0.03 2.5625 -5.31 2.5625 -10.75 2.5625 C-10.75 1.9025 -10.75 1.2425 -10.75 0.5625 C-7.06599416 -0.66854155 -3.83525024 -0.34517252 0 0 Z " fill="#549BCA" transform="translate(293.75,112.4375)"/>
<path d="M0 0 C0.99 0.33 1.98 0.66 3 1 C3.33 1.99 3.66 2.98 4 4 C2.35 5.65 0.7 7.3 -1 9 C-2.32 8.34 -3.64 7.68 -5 7 C-3.35 4.69 -1.7 2.38 0 0 Z " fill="#31689B" transform="translate(275,308)"/>
<path d="M0 0 C0.66 0.33 1.32 0.66 2 1 C3.29920852 6.41336882 2.77234615 9.89147286 1 15 C0.67 15 0.34 15 0 15 C0 13.35 0 11.7 0 10 C-0.66 10 -1.32 10 -2 10 C-1.34 6.7 -0.68 3.4 0 0 Z " fill="#487BA8" transform="translate(202,264)"/>
<path d="M0 0 C2.05494031 3.08241046 3.36343791 6.00614832 4.75 9.4375 C5.21921875 10.57058594 5.6884375 11.70367187 6.171875 12.87109375 C7 16 7 16 6.140625 18.41015625 C5.76421875 18.93480469 5.3878125 19.45945313 5 20 C4.1572257 17.60712296 3.32562998 15.21128981 2.5 12.8125 C2.26152344 12.13896484 2.02304687 11.46542969 1.77734375 10.77148438 C0.51272408 7.06795533 -0.30451221 3.92059464 0 0 Z " fill="#7DD1B9" transform="translate(472,226)"/>
<path d="M0 0 C1.32 0.66 2.64 1.32 4 2 C3.54625 2.680625 3.0925 3.36125 2.625 4.0625 C0.83163514 7.30435186 -0.08753869 10.4203441 -1 14 C-1.33 14 -1.66 14 -2 14 C-2.25028811 12.41986783 -2.47440946 10.83557694 -2.6875 9.25 C-2.81511719 8.36828125 -2.94273437 7.4865625 -3.07421875 6.578125 C-2.98397191 3.44323483 -2.07384637 2.28176413 0 0 Z " fill="#336A9A" transform="translate(251,309)"/>
<path d="M0 0 C2.88437779 1.29299694 4.87219421 2.65941363 7 5 C6.02391783 7.92824652 4.89213369 9.61426621 3 12 C2.566875 10.2984375 2.566875 10.2984375 2.125 8.5625 C1.75375 7.386875 1.3825 6.21125 1 5 C0.34 4.67 -0.32 4.34 -1 4 C-0.67 2.68 -0.34 1.36 0 0 Z " fill="#386D9D" transform="translate(250,294)"/>
<path d="M0 0 C4 4.75 4 4.75 4 7 C4.66 7.33 5.32 7.66 6 8 C6 8.99 6 9.98 6 11 C6.66 11.33 7.32 11.66 8 12 C8.625 15.0625 8.625 15.0625 9 18 C8.01 17.67 7.02 17.34 6 17 C5.05078125 14.49609375 5.05078125 14.49609375 4.3125 11.4375 C3.93544922 9.91962891 3.93544922 9.91962891 3.55078125 8.37109375 C3.36902344 7.58863281 3.18726563 6.80617187 3 6 C2.34 6 1.68 6 1 6 C0.34 4.35 -0.32 2.7 -1 1 C-0.67 0.67 -0.34 0.34 0 0 Z " fill="#82D9C0" transform="translate(463,208)"/>
<path d="M0 0 C3.93673644 1.31224548 6.22719294 2.91910327 9 6 C7.02 6.99 7.02 6.99 5 8 C3.02 6.35 1.04 4.7 -1 3 C-0.67 2.01 -0.34 1.02 0 0 Z " fill="#7CC4AF" transform="translate(331,317)"/>
<path d="M0 0 C1.65 0 3.3 0 5 0 C5 2.31 5 4.62 5 7 C3.35 7 1.7 7 0 7 C0 4.69 0 2.38 0 0 Z " fill="#1A578E" transform="translate(276,284)"/>
<path d="M0 0 C0.33 0 0.66 0 1 0 C1.04241723 2.33294775 1.04092937 4.66702567 1 7 C0.67 7.33 0.34 7.66 0 8 C-0.24261665 10.25543624 -0.38332133 12.50945523 -0.5234375 14.7734375 C-1.08363037 17.39073204 -1.96995128 18.3173393 -4 20 C-3.42978625 13.04339229 -1.98697306 6.68572695 0 0 Z " fill="#D2E6F3" transform="translate(176,270)"/>
<path d="M0 0 C1.32 0 2.64 0 4 0 C4 1.98 4 3.96 4 6 C2.02 6 0.04 6 -2 6 C-1.125 1.125 -1.125 1.125 0 0 Z " fill="#FBFDFD" transform="translate(309,280)"/>
<path d="M0 0 C-3.42388092 3.82669043 -6.00724943 5.72278474 -11 7 C-11 6.01 -11 5.02 -11 4 C-10.34 4 -9.68 4 -9 4 C-9 3.34 -9 2.68 -9 2 C-5.86501708 0.14223235 -3.62528568 -0.20140476 0 0 Z " fill="#397BB2" transform="translate(201,143)"/>
<path d="M0 0 C-1.26941497 3.91402949 -2.51167694 5.79072873 -6 8 C-6.6875 5.6875 -6.6875 5.6875 -7 3 C-4.87164172 -0.24854684 -4.06968429 0 0 0 Z " fill="#1D5386" transform="translate(288,327)"/>
<path d="M0 0 C0 0.33 0 0.66 0 1 C-1.65 1.33 -3.3 1.66 -5 2 C-4.01 2.99 -3.02 3.98 -2 5 C-3.98 5.99 -3.98 5.99 -6 7 C-7.65 5.35 -9.3 3.7 -11 2 C-7.36576791 -0.32590854 -4.22911669 -0.16265833 0 0 Z " fill="#9AD9C8" transform="translate(348,273)"/>
<path d="M0 0 C1.83979073 2.7596861 2.48323221 4.29741882 3.1875 7.4375 C3.36667969 8.19933594 3.54585938 8.96117187 3.73046875 9.74609375 C4.0154963 12.12958496 3.72875415 13.73104204 3 16 C1.15011717 11.33507807 -0.52028656 7.03699117 -1 2 C-0.67 1.34 -0.34 0.68 0 0 Z " fill="#1F517D" transform="translate(117,338)"/>
<path d="M0 0 C1.21816406 0.03480469 1.21816406 0.03480469 2.4609375 0.0703125 C3.68683594 0.09738281 3.68683594 0.09738281 4.9375 0.125 C5.87722656 0.15980469 5.87722656 0.15980469 6.8359375 0.1953125 C6.8359375 0.5253125 6.8359375 0.8553125 6.8359375 1.1953125 C5.1859375 1.5253125 3.5359375 1.8553125 1.8359375 2.1953125 C2.8259375 2.8553125 3.8159375 3.5153125 4.8359375 4.1953125 C2.1959375 4.8553125 -0.4440625 5.5153125 -3.1640625 6.1953125 C-3.4940625 4.8753125 -3.8240625 3.5553125 -4.1640625 2.1953125 C-2.1640625 0.1953125 -2.1640625 0.1953125 0 0 Z " fill="#3D709C" transform="translate(266.1640625,294.8046875)"/>
<path d="M0 0 C1.98 0 3.96 0 6 0 C6 1.65 6 3.3 6 5 C4.02 5 2.04 5 0 5 C0 3.35 0 1.7 0 0 Z " fill="#FAFDFE" transform="translate(283,272)"/>
<path d="M0 0 C0.66 0.33 1.32 0.66 2 1 C1.67 3.64 1.34 6.28 1 9 C-2.33333333 9 -5.66666667 9 -9 9 C-8.67 8.34 -8.34 7.68 -8 7 C-4.9375 6.375 -4.9375 6.375 -2 6 C-1.34 4.02 -0.68 2.04 0 0 Z " fill="#83D5BE" transform="translate(390,230)"/>
<path d="M0 0 C-0.04125 1.11375 -0.0825 2.2275 -0.125 3.375 C-0.41121859 7.04366025 -0.41121859 7.04366025 2 9 C0.68 9.33 -0.64 9.66 -2 10 C-4 7 -4 7 -3.75 3.875 C-3.37875 2.451875 -3.37875 2.451875 -3 1 C-1 0 -1 0 0 0 Z M-3 5 C-2 7 -2 7 -2 7 Z " fill="#175083" transform="translate(295,313)"/>
<path d="M0 0 C0.66 0.33 1.32 0.66 2 1 C2 4.52032428 1.29648649 5.4385343 -1 8 C-1.66 8 -2.32 8 -3 8 C-3.1875 5.125 -3.1875 5.125 -3 2 C-2.01 1.34 -1.02 0.68 0 0 Z " fill="#3F75A3" transform="translate(271,246)"/>
<path d="M0 0 C0 0.66 0 1.32 0 2 C-1.49609375 3.4375 -1.49609375 3.4375 -3.4375 5 C-6.15188238 7.14525044 -6.15188238 7.14525044 -8 10 C-8.66 10 -9.32 10 -10 10 C-8.71596412 5.50587442 -5.23012555 0 0 0 Z " fill="#E1F1F9" transform="translate(207,367)"/>
<path d="M0 0 C2.97 0 5.94 0 9 0 C8.67 0.99 8.34 1.98 8 3 C5.03 3 2.06 3 -1 3 C-0.67 2.01 -0.34 1.02 0 0 Z " fill="#1E568A" transform="translate(241,294)"/>
<path d="M0 0 C2.475 0.99 2.475 0.99 5 2 C4.01 3.485 4.01 3.485 3 5 C2.60986284 6.9896995 2.26797351 8.99019869 2 11 C1.67 11 1.34 11 1 11 C1 8.69 1 6.38 1 4 C0.01 3.67 -0.98 3.34 -2 3 C-1.34 2.01 -0.68 1.02 0 0 Z " fill="#8ECEBB" transform="translate(353,309)"/>
<path d="M0 0 C0.928125 0.20625 1.85625 0.4125 2.8125 0.625 C-1.9375 4.5 -1.9375 4.5 -4.1875 5.625 C-4.8475 4.965 -5.5075 4.305 -6.1875 3.625 C-6.1875 2.965 -6.1875 2.305 -6.1875 1.625 C-3.1875 -0.375 -3.1875 -0.375 0 0 Z " fill="#5385AF" transform="translate(278.1875,243.375)"/>
<path d="M0 0 C2.52480693 2.52480693 2.55738633 4.13823034 3.125 7.625 C3.29257813 8.62789063 3.46015625 9.63078125 3.6328125 10.6640625 C3.75398438 11.43492187 3.87515625 12.20578125 4 13 C1.25125814 10.25125814 -0.41817898 7.84001871 -1 4 C-0.5625 1.75 -0.5625 1.75 0 0 Z " fill="#104470" transform="translate(121,350)"/>
<path d="M0 0 C1.98 0.99 3.96 1.98 6 3 C5.01 3.99 4.02 4.98 3 6 C1.02 5.01 -0.96 4.02 -3 3 C-2.01 2.01 -1.02 1.02 0 0 Z " fill="#8AC9B7" transform="translate(315,328)"/>
<path d="M0 0 C2.64 0.33 5.28 0.66 8 1 C6.68 1.33 5.36 1.66 4 2 C5.32 3.65 6.64 5.3 8 7 C5.6875 6.875 5.6875 6.875 3 6 C1.1875 2.9375 1.1875 2.9375 0 0 Z " fill="#D3F2EF" transform="translate(303,323)"/>
<path d="M0 0 C0.66 0.66 1.32 1.32 2 2 C1.625 4.625 1.625 4.625 1 7 C0.34 6.34 -0.32 5.68 -1 5 C-1.66 5.66 -2.32 6.32 -3 7 C-3.99 6.67 -4.98 6.34 -6 6 C-4 4 -2 2 0 0 Z " fill="#346797" transform="translate(265,321)"/>
<path d="M0 0 C1.4540625 0.0309375 1.4540625 0.0309375 2.9375 0.0625 C2.9375 0.7225 2.9375 1.3825 2.9375 2.0625 C1.761875 2.43375 1.761875 2.43375 0.5625 2.8125 C-2.38567108 4.21639099 -2.9649777 5.06925737 -4.0625 8.0625 C-4.10491723 5.72955225 -4.10342937 3.39547433 -4.0625 1.0625 C-3.0625 0.0625 -3.0625 0.0625 0 0 Z " fill="#E2FBF6" transform="translate(310.0625,277.9375)"/>
<path d="M0 0 C2.475 0.99 2.475 0.99 5 2 C4.34 4.31 3.68 6.62 3 9 C2.67 9 2.34 9 2 9 C2 6.69 2 4.38 2 2 C1.01 1.67 0.02 1.34 -1 1 C-0.67 0.67 -0.34 0.34 0 0 Z " fill="#CCE2F0" transform="translate(229,367)"/>
<path d="M0 0 C2.625 0.9375 2.625 0.9375 5 2 C4.01 2.66 3.02 3.32 2 4 C1.27034634 6.56282742 1.27034634 6.56282742 1 9 C0.67 9 0.34 9 0 9 C-0.66 6.36 -1.32 3.72 -2 1 C-1.34 0.67 -0.68 0.34 0 0 Z " fill="#78C2AA" transform="translate(320,332)"/>
<path d="M0 0 C0.33 0 0.66 0 1 0 C1.375 2.6875 1.375 2.6875 1 6 C-0.823983 8.06398076 -2.72763839 9.39041053 -5 11 C-5.66 10.34 -6.32 9.68 -7 9 C-6.21625 8.62875 -5.4325 8.2575 -4.625 7.875 C-1.39371171 5.56693694 -0.92493788 3.78383679 0 0 Z " fill="#78C2AD" transform="translate(355,316)"/>
<path d="M0 0 C-3.6441774 2.4294516 -5.71241272 2.16179575 -10 2 C-10.33 1.34 -10.66 0.68 -11 0 C-3.57142857 -1.28571429 -3.57142857 -1.28571429 0 0 Z " fill="#C6DEEF" transform="translate(249,313)"/>
<path d="M0 0 C2.00720923 0.28674418 4.0085944 0.61866701 6 1 C6 1.99 6 2.98 6 4 C5.01 4.33 4.02 4.66 3 5 C1.68 3.68 0.36 2.36 -1 1 C-0.67 0.67 -0.34 0.34 0 0 Z " fill="#8BCAB9" transform="translate(338,300)"/>
<path d="M0 0 C0.66 1.32 1.32 2.64 2 4 C0.68 5.32 -0.64 6.64 -2 8 C-2 7.01 -2 6.02 -2 5 C-2.66 4.67 -3.32 4.34 -4 4 C-2.68 2.68 -1.36 1.36 0 0 Z " fill="#276090" transform="translate(261,298)"/>
<path d="M0 0 C0.99 0 1.98 0 3 0 C3.28571429 7.42857143 3.28571429 7.42857143 1 11 C1 9.02 1 7.04 1 5 C0.34 4.67 -0.32 4.34 -1 4 C-0.67 2.68 -0.34 1.36 0 0 Z " fill="#517FA9" transform="translate(206,251)"/>
<path d="M0 0 C2.97 0.33 5.94 0.66 9 1 C8.67 1.66 8.34 2.32 8 3 C5.36 3 2.72 3 0 3 C0 2.01 0 1.02 0 0 Z " fill="#95E9D3" transform="translate(332,116)"/>
<path d="M0 0 C1.4391134 0.28359887 2.87625518 0.57721399 4.3125 0.875 C5.11300781 1.03742188 5.91351563 1.19984375 6.73828125 1.3671875 C9 2 9 2 12 4 C7.12335991 4.34833144 4.22949995 3.41685712 0 1 C0 0.67 0 0.34 0 0 Z " fill="#184A79" transform="translate(198,413)"/>
<path d="M0 0 C1.32 0 2.64 0 4 0 C4 0.66 4 1.32 4 2 C3.01 2 2.02 2 1 2 C2.15173355 4.46800047 3.04783565 6.04783565 5 8 C3.35 7.67 1.7 7.34 0 7 C0 4.69 0 2.38 0 0 Z " fill="#E0F8F4" transform="translate(320,309)"/>
<path d="M0 0 C1.65 0.33 3.3 0.66 5 1 C5 1.99 5 2.98 5 4 C3.35 4 1.7 4 0 4 C-0.33 3.34 -0.66 2.68 -1 2 C-0.67 1.34 -0.34 0.68 0 0 Z " fill="#81D2BB" transform="translate(307,248)"/>
<path d="M0 0 C0.598125 0.20625 1.19625 0.4125 1.8125 0.625 C1.1525 1.945 0.4925 3.265 -0.1875 4.625 C-0.8475 4.625 -1.5075 4.625 -2.1875 4.625 C-2.1875 3.965 -2.1875 3.305 -2.1875 2.625 C-3.1775 2.295 -4.1675 1.965 -5.1875 1.625 C-2.1875 -0.375 -2.1875 -0.375 0 0 Z " fill="#4D7EA6" transform="translate(285.1875,237.375)"/>
<path d="M0 0 C5.57142857 5.14285714 5.57142857 5.14285714 6 9 C3 8 3 8 1.3125 5.625 C0 3 0 3 0 0 Z " fill="#85DCC4" transform="translate(457,199)"/>
<path d="M0 0 C-0.99 0 -1.98 0 -3 0 C-3.33 0.99 -3.66 1.98 -4 3 C-6.64 3 -9.28 3 -12 3 C-4.82142857 -1.78571429 -4.82142857 -1.78571429 0 0 Z " fill="#CEE3F2" transform="translate(277,230)"/>
<path d="M0 0 C0 0.33 0 0.66 0 1 C-1.98 1 -3.96 1 -6 1 C-6.66 2.32 -7.32 3.64 -8 5 C-8.99 4.67 -9.98 4.34 -11 4 C-7.65667474 -0.27945633 -5.29105716 -0.4070044 0 0 Z " fill="#C4DCEC" transform="translate(299,324)"/>
<path d="M0 0 C0.33 0 0.66 0 1 0 C1.6875 3.3125 1.6875 3.3125 2 7 C0.5625 8.9375 0.5625 8.9375 -1 10 C-1.99 9.67 -2.98 9.34 -4 9 C-3.525625 8.62875 -3.05125 8.2575 -2.5625 7.875 C-0.47794198 5.37353038 -0.35378509 3.18406582 0 0 Z " fill="#D8F4EE" transform="translate(320,282)"/>
<path d="M0 0 C1.32 0.33 2.64 0.66 4 1 C4 2.32 4 3.64 4 5 C2.68 5 1.36 5 0 5 C0 3.35 0 1.7 0 0 Z " fill="#80CEB8" transform="translate(399,277)"/>
<path d="M0 0 C1.98 0 3.96 0 6 0 C6 0.99 6 1.98 6 3 C4.02 3 2.04 3 0 3 C0 2.01 0 1.02 0 0 Z " fill="#74CDB4" transform="translate(309,274)"/>
<path d="M0 0 C1.65 0 3.3 0 5 0 C5.33 0.66 5.66 1.32 6 2 C3.69 2.66 1.38 3.32 -1 4 C-0.67 2.68 -0.34 1.36 0 0 Z " fill="#1C5386" transform="translate(283,305)"/>
<path d="M0 0 C4.455 0.99 4.455 0.99 9 2 C9 2.66 9 3.32 9 4 C6.75 4.25 6.75 4.25 4 4 C1.6875 2 1.6875 2 0 0 Z " fill="#376C9C" transform="translate(204,290)"/>
<path d="M0 0 C2.64 0 5.28 0 8 0 C8 0.66 8 1.32 8 2 C8.99 2.33 9.98 2.66 11 3 C6.94393835 2.53199289 3.53411321 2.12046792 0 0 Z " fill="#C5DEEE" transform="translate(182,293)"/>
<path d="M0 0 C0.33 0 0.66 0 1 0 C1 1.98 1 3.96 1 6 C0.34 6 -0.32 6 -1 6 C-1.33 6.66 -1.66 7.32 -2 8 C-2.6875 6.25 -2.6875 6.25 -3 4 C-1.625 1.75 -1.625 1.75 0 0 Z " fill="#396FA1" transform="translate(209,245)"/>
<path d="M0 0 C0.33 0.66 0.66 1.32 1 2 C0.34 1.67 -0.32 1.34 -1 1 C-0.67 0.67 -0.34 0.34 0 0 Z " fill="#569C88" transform="translate(350,482)"/>
<path d="" fill="#56A289" transform="translate(0,0)"/>
<path d="M0 0 C0.99 0.495 0.99 0.495 2 1 C1.01 1.495 1.01 1.495 0 2 C0 1.34 0 0.68 0 0 Z " fill="#76D0B5" transform="translate(484,256)"/>
<path d="M0 0 C2 1 2 1 2 1 Z " fill="#5AA18A" transform="translate(397,462)"/>
<path d="" fill="#5BA08A" transform="translate(0,0)"/>
<path d="" fill="#2A5E8D" transform="translate(0,0)"/>
<path d="M0 0 C2 1 2 1 2 1 Z " fill="#60A690" transform="translate(432,436)"/>
<path d="M0 0 C2 1 2 1 2 1 Z " fill="#1F4B73" transform="translate(162,431)"/>
<path d="" fill="#5CAD96" transform="translate(0,0)"/>
<path d="" fill="#3175AE" transform="translate(0,0)"/>
<path d="M0 0 C2 1 2 1 2 1 Z " fill="#82DEC3" transform="translate(370,123)"/>
<path d="M0 0 C2 1 2 1 2 1 Z " fill="#72C8BF" transform="translate(339,114)"/>
<path d="" fill="#3D84B5" transform="translate(0,0)"/>
<path d="" fill="#4B9284" transform="translate(0,0)"/>
<path d="" fill="#50A194" transform="translate(0,0)"/>
<path d="" fill="#499989" transform="translate(0,0)"/>
<path d="" fill="#4FA393" transform="translate(0,0)"/>
<path d="" fill="#529783" transform="translate(0,0)"/>
<path d="" fill="#0F497C" transform="translate(0,0)"/>
<path d="" fill="#4FA18E" transform="translate(0,0)"/>
<path d="" fill="#559984" transform="translate(0,0)"/>
<path d="" fill="#0F497C" transform="translate(0,0)"/>
<path d="" fill="#174976" transform="translate(0,0)"/>
<path d="" fill="#58B093" transform="translate(0,0)"/>
<path d="" fill="#0C4477" transform="translate(0,0)"/>
<path d="" fill="#60B498" transform="translate(0,0)"/>
<path d="" fill="#164671" transform="translate(0,0)"/>
<path d="" fill="#589F87" transform="translate(0,0)"/>
<path d="" fill="#13487A" transform="translate(0,0)"/>
<path d="" fill="#144069" transform="translate(0,0)"/>
<path d="" fill="#5BA08B" transform="translate(0,0)"/>
<path d="" fill="#16426A" transform="translate(0,0)"/>
<path d="" fill="#60AC94" transform="translate(0,0)"/>
<path d="" fill="#23598A" transform="translate(0,0)"/>
<path d="" fill="#215482" transform="translate(0,0)"/>
<path d="" fill="#5FB399" transform="translate(0,0)"/>
<path d="" fill="#5BA18B" transform="translate(0,0)"/>
<path d="" fill="#64AE97" transform="translate(0,0)"/>
<path d="" fill="#2A5B87" transform="translate(0,0)"/>
<path d="" fill="#2A5D8C" transform="translate(0,0)"/>
<path d="" fill="#1D4A71" transform="translate(0,0)"/>
<path d="" fill="#255784" transform="translate(0,0)"/>
<path d="" fill="#5BA48D" transform="translate(0,0)"/>
<path d="" fill="#68B9A1" transform="translate(0,0)"/>
<path d="" fill="#1E4870" transform="translate(0,0)"/>
<path d="" fill="#62AE96" transform="translate(0,0)"/>
<path d="" fill="#6CBEA4" transform="translate(0,0)"/>
<path d="" fill="#60A791" transform="translate(0,0)"/>
<path d="" fill="#1C4872" transform="translate(0,0)"/>
<path d="" fill="#10497D" transform="translate(0,0)"/>
<path d="" fill="#60B59B" transform="translate(0,0)"/>
<path d="" fill="#5DB097" transform="translate(0,0)"/>
<path d="" fill="#5BAE95" transform="translate(0,0)"/>
<path d="" fill="#5EAC95" transform="translate(0,0)"/>
<path d="" fill="#5DAF97" transform="translate(0,0)"/>
<path d="" fill="#104B7F" transform="translate(0,0)"/>
<path d="" fill="#61B099" transform="translate(0,0)"/>
<path d="" fill="#62B19B" transform="translate(0,0)"/>
<path d="" fill="#135188" transform="translate(0,0)"/>
<path d="" fill="#135188" transform="translate(0,0)"/>
<path d="" fill="#65B59D" transform="translate(0,0)"/>
<path d="" fill="#68C1A7" transform="translate(0,0)"/>
<path d="" fill="#18568D" transform="translate(0,0)"/>
<path d="" fill="#175790" transform="translate(0,0)"/>
<path d="" fill="#1E619B" transform="translate(0,0)"/>
<path d="" fill="#72CCB2" transform="translate(0,0)"/>
<path d="" fill="#77CAB2" transform="translate(0,0)"/>
<path d="" fill="#6FCFB3" transform="translate(0,0)"/>
<path d="" fill="#75CFB4" transform="translate(0,0)"/>
<path d="" fill="#226095" transform="translate(0,0)"/>
<path d="" fill="#246196" transform="translate(0,0)"/>
<path d="" fill="#3574AA" transform="translate(0,0)"/>
<path d="" fill="#81D3BB" transform="translate(0,0)"/>
<path d="" fill="#3C77A6" transform="translate(0,0)"/>
<path d="" fill="#82D4BD" transform="translate(0,0)"/>
<path d="" fill="#75C7AF" transform="translate(0,0)"/>
<path d="" fill="#306B9E" transform="translate(0,0)"/>
<path d="" fill="#84DCC4" transform="translate(0,0)"/>
<path d="" fill="#3E7EB3" transform="translate(0,0)"/>
<path d="" fill="#82D4BC" transform="translate(0,0)"/>
<path d="" fill="#82D4BC" transform="translate(0,0)"/>
<path d="" fill="#4A83B2" transform="translate(0,0)"/>
<path d="" fill="#4580B0" transform="translate(0,0)"/>
<path d="" fill="#3374AC" transform="translate(0,0)"/>
<path d="" fill="#3374AC" transform="translate(0,0)"/>
<path d="" fill="#3174AB" transform="translate(0,0)"/>
<path d="" fill="#3073AB" transform="translate(0,0)"/>
<path d="" fill="#3073AB" transform="translate(0,0)"/>
<path d="" fill="#3173AB" transform="translate(0,0)"/>
<path d="" fill="#2C6CA1" transform="translate(0,0)"/>
<path d="" fill="#2C6CA2" transform="translate(0,0)"/>
<path d="" fill="#4587BD" transform="translate(0,0)"/>
<path d="" fill="#2E6EA5" transform="translate(0,0)"/>
<path d="" fill="#3174AD" transform="translate(0,0)"/>
<path d="" fill="#86E3C8" transform="translate(0,0)"/>
<path d="" fill="#7FD8BF" transform="translate(0,0)"/>
<path d="" fill="#7FD9BF" transform="translate(0,0)"/>
<path d="" fill="#7FD9BF" transform="translate(0,0)"/>
<path d="" fill="#337AB6" transform="translate(0,0)"/>
<path d="" fill="#347BB6" transform="translate(0,0)"/>
<path d="" fill="#3071A8" transform="translate(0,0)"/>
<path d="" fill="#3680BD" transform="translate(0,0)"/>
<path d="" fill="#80DAC0" transform="translate(0,0)"/>
<path d="" fill="#3173A9" transform="translate(0,0)"/>
<path d="" fill="#5090C6" transform="translate(0,0)"/>
<path d="" fill="#73C6B8" transform="translate(0,0)"/>
<path d="" fill="#68B9B6" transform="translate(0,0)"/>
<path d="" fill="#6BC3C6" transform="translate(0,0)"/>
<path d="" fill="#75CECB" transform="translate(0,0)"/>
<path d="" fill="#54A4CA" transform="translate(0,0)"/>
</svg>
